<?xml version="1.0" encoding="UTF-8"?>
<svg version="1.1" xmlns="http://www.w3.org/2000/svg" width="800" height="297">
<path d="M0 0 C1.1636911 -0.01273453 1.1636911 -0.01273453 2.35089111 -0.02572632 C15.40399367 -0.12722173 28.14198947 1.35266125 40.25 6.5625 C40.25 7.2225 40.25 7.8825 40.25 8.5625 C40.95125 8.7275 41.6525 8.8925 42.375 9.0625 C48.18486165 12.09373216 51.77746141 18.30612422 53.77734375 24.4375 C55.71366568 33.14294736 53.86353247 40.86807124 49.1171875 48.34765625 C44.21598169 54.69325715 38.15431385 58.49274324 30.25 59.5625 C24.75917855 60.1584031 19.98125363 59.33521342 14.625 58.0625 C0.07091378 54.77255586 -14.4203901 56.04610969 -27.84765625 62.6953125 C-29.79618085 63.58355164 -31.66189703 64.10674479 -33.75 64.5625 C-33.75 65.2225 -33.75 65.8825 -33.75 66.5625 C-34.74 67.0575 -35.73 67.5525 -36.75 68.0625 C-41.77543313 70.9136641 -47.13384952 75.33019904 -49.75 80.5625 C-50.41 80.5625 -51.07 80.5625 -51.75 80.5625 C-51.9975 81.243125 -52.245 81.92375 -52.5 82.625 C-53.75 85.5625 -53.75 85.5625 -55.625 88.75 C-64.21006416 103.58165935 -65.64167805 119.57266517 -61.72265625 136.10546875 C-59.26979415 144.82347259 -56.02698593 151.92660593 -50.10546875 158.8203125 C-48.75 160.5625 -48.75 160.5625 -48.75 162.5625 C-47.76 162.8925 -46.77 163.2225 -45.75 163.5625 C-45.75 164.2225 -45.75 164.8825 -45.75 165.5625 C-44.76 165.8925 -43.77 166.2225 -42.75 166.5625 C-42.75 167.2225 -42.75 167.8825 -42.75 168.5625 C-42.18539062 168.83320313 -41.62078125 169.10390625 -41.0390625 169.3828125 C-38.64423493 170.61700691 -36.40552739 172.0038134 -34.125 173.4375 C-19.18164651 182.42104096 -2.13129244 185.21288066 14.90185547 181.22509766 C18.96472033 180.184089 22.95328218 179.12388393 26.8125 177.453125 C33.20767546 175.11642627 41.03760954 175.66493762 47.25 178.3125 C54.40767514 182.08038364 60.15069779 187.61447707 62.90625 195.421875 C64.38530346 204.63234426 64.01518052 213.39288841 59.13671875 221.38671875 C51.59692077 231.63995435 35.16794724 236.01845633 23.06884766 238.11328125 C18.81361236 238.61383316 14.66608834 238.72440674 10.38671875 238.73046875 C9.55469437 238.73379715 8.72266998 238.73712555 7.86543274 238.74055481 C6.11317493 238.74559307 4.36090762 238.7479641 2.60864258 238.74780273 C-0.04427235 238.74998501 -2.69676803 238.76816227 -5.34960938 238.78710938 C-21.69655598 238.84292202 -21.69655598 238.84292202 -29.75 236.5625 C-30.40685791 236.39613037 -31.06371582 236.22976074 -31.74047852 236.05834961 C-42.45997672 233.25160703 -52.0118248 228.7594314 -61.75 223.5625 C-62.41 223.2325 -63.07 222.9025 -63.75 222.5625 C-63.75 221.9025 -63.75 221.2425 -63.75 220.5625 C-64.31589844 220.46839844 -64.88179687 220.37429687 -65.46484375 220.27734375 C-73.7786453 217.67661608 -82.65734341 207.79415256 -88.75 201.5625 C-88.75 200.9025 -88.75 200.2425 -88.75 199.5625 C-89.41 199.5625 -90.07 199.5625 -90.75 199.5625 C-104.23649862 184.9814007 -112.36118568 166.40368291 -117.75 147.5625 C-118.09160156 146.38816406 -118.43320313 145.21382812 -118.78515625 144.00390625 C-125.49387473 116.51376216 -119.87094979 84.78621997 -105.4375 60.5625 C-104.5517467 59.22244917 -103.65639748 57.88867448 -102.75 56.5625 C-102.24082031 55.655 -101.73164062 54.7475 -101.20703125 53.8125 C-100.48580078 52.69875 -100.48580078 52.69875 -99.75 51.5625 C-99.09 51.5625 -98.43 51.5625 -97.75 51.5625 C-97.63519287 50.96920898 -97.52038574 50.37591797 -97.40209961 49.76464844 C-96.70503067 47.41063801 -95.89018923 46.1890654 -94.31640625 44.328125 C-93.83236328 43.75449219 -93.34832031 43.18085937 -92.84960938 42.58984375 C-92.34236328 42.00332031 -91.83511719 41.41679688 -91.3125 40.8125 C-90.80912109 40.21050781 -90.30574219 39.60851562 -89.78710938 38.98828125 C-88.49057313 37.46962923 -87.12487212 36.01061493 -85.75 34.5625 C-85.09 34.5625 -84.43 34.5625 -83.75 34.5625 C-83.75 33.9025 -83.75 33.2425 -83.75 32.5625 C-60.8964517 10.50182991 -31.24596682 0.11416811 0 0 Z " fill="#ECD7CC" transform="translate(194.75,28.4375)"/>
<path d="M0 0 C5.87038907 5.11261009 9.29615658 10.77447493 12 18 C12.495 18.99 12.495 18.99 13 20 C13.15476442 21.91449317 13.27479954 23.83187696 13.375 25.75 C13.80652632 31.38007 14.84498636 35.25725537 18.375 39.75 C22.65489542 43.04222725 26.71076149 43.44076988 32 43 C33.49064821 42.5353475 34.96989623 42.03298519 36.4375 41.5 C44.35154516 38.68790274 50.30255112 40.00654766 58 43 C58 43.66 58 44.32 58 45 C58.74765625 45.23976562 59.4953125 45.47953125 60.265625 45.7265625 C65.18531769 48.01773367 67.62987853 52.24704863 70 57 C72.19163585 66.04484638 71.13430225 73.80287938 66.375 81.6875 C62.65826716 86.97494058 58.08374884 89.97208372 52 92 C43.81966382 92.63405401 36.88373124 92.79093858 30 88 C29.175 87.46375 28.35 86.9275 27.5 86.375 C27.005 85.92125 26.51 85.4675 26 85 C26 84.34 26 83.68 26 83 C25.34 83 24.68 83 24 83 C21.36236849 78.27045384 19.70374084 74.11861404 18.5625 68.8125 C17.4085753 63.86621736 16.27361171 61.05257979 12 58 C8.12281568 55.85734551 4.34697086 55.2138457 0 56 C-2.09876364 56.77176758 -4.18094963 57.58928741 -6.25 58.4375 C-16.59269751 62.58639923 -25.48985121 63.06073931 -36 59 C-45.0843306 54.31508093 -51.29714926 47.03906721 -54.9375 37.5 C-57.32743845 29.05357157 -56.28161852 21.05742079 -53 13 C-51.0625 9.6875 -51.0625 9.6875 -49 7 C-48.401875 6.154375 -47.80375 5.30875 -47.1875 4.4375 C-34.77093242 -9.39810387 -15.01153745 -10.11370532 0 0 Z " fill="#ECD7CD" transform="translate(242,123)"/>
<path d="M0 0 C1.10085938 -0.01417969 2.20171875 -0.02835937 3.3359375 -0.04296875 C9.18919951 0.36717669 13.41525763 2.09153445 17.625 6.1875 C19.4375 9.4375 19.4375 9.4375 20.625 12.1875 C21.03492188 11.61 21.44484375 11.0325 21.8671875 10.4375 C22.40601563 9.695 22.94484375 8.9525 23.5 8.1875 C24.03367187 7.445 24.56734375 6.7025 25.1171875 5.9375 C25.61476563 5.36 26.11234375 4.7825 26.625 4.1875 C27.285 4.1875 27.945 4.1875 28.625 4.1875 C28.625 3.5275 28.625 2.8675 28.625 2.1875 C36.55110248 -0.69471908 45.80393825 -1.33197779 53.625 2.1875 C54.60726562 2.5896875 54.60726562 2.5896875 55.609375 3 C58.06036446 4.44399379 58.95546754 5.86774966 60.375 8.3125 C60.80296875 9.03695312 61.2309375 9.76140625 61.671875 10.5078125 C61.98640625 11.06210938 62.3009375 11.61640625 62.625 12.1875 C63.07939453 11.37345703 63.07939453 11.37345703 63.54296875 10.54296875 C66.04247925 6.2745739 67.91145523 3.19075653 72.625 1.1875 C79.89533187 -0.57726432 88.78069217 -1.15118675 95.625 2.1875 C100.23989399 5.08522413 101.9377479 8.03694095 103.625 13.1875 C104.3115713 17.79733587 103.25662834 21.20468397 101.0859375 25.23046875 C96.95624438 30.76249081 89.98356309 33.89841729 83.625 36.1875 C82.635 36.1875 81.645 36.1875 80.625 36.1875 C80.625 36.8475 80.625 37.5075 80.625 38.1875 C87.555 38.1875 94.485 38.1875 101.625 38.1875 C101.315625 35.8671875 101.315625 35.8671875 101 33.5 C101.00986729 25.79364437 105.37846859 21.35919137 110.19726562 15.90185547 C111.64805402 14.15981783 112.89163778 12.36340191 114.140625 10.47265625 C120.09237489 1.84688169 120.09237489 1.84688169 124.77050781 0.62890625 C129.9211828 0.06787755 134.36307989 0.64026031 139.625 1.1875 C139.625 10.0975 139.625 19.0075 139.625 28.1875 C141.605 28.1875 143.585 28.1875 145.625 28.1875 C145.625 32.4775 145.625 36.7675 145.625 41.1875 C143.645 41.1875 141.665 41.1875 139.625 41.1875 C139.625 44.1575 139.625 47.1275 139.625 50.1875 C134.675 50.1875 129.725 50.1875 124.625 50.1875 C124.625 47.2175 124.625 44.2475 124.625 41.1875 C117.695 41.1875 110.765 41.1875 103.625 41.1875 C103.625 44.1575 103.625 47.1275 103.625 50.1875 C90.095 50.1875 76.565 50.1875 62.625 50.1875 C62.625 46.5575 62.625 42.9275 62.625 39.1875 C61.84125 40.5075 61.0575 41.8275 60.25 43.1875 C58.9140625 45.4375 58.9140625 45.4375 57.625 47.1875 C56.965 47.1875 56.305 47.1875 55.625 47.1875 C55.625 47.8475 55.625 48.5075 55.625 49.1875 C46.885445 52.65852894 39.57956958 53.46887292 30.63671875 50.17578125 C26.48172867 48.13459195 24.13597377 44.95396066 21.625 41.1875 C21.295 44.1575 20.965 47.1275 20.625 50.1875 C7.095 50.1875 -6.435 50.1875 -20.375 50.1875 C-19.24482607 33.2348911 -19.24482607 33.2348911 -15.88671875 29.47265625 C-10.70829219 25.07032463 -3.21411026 21.1875 3.625 21.1875 C3.625 18.8775 3.625 16.5675 3.625 14.1875 C0.985 13.8575 -1.655 13.5275 -4.375 13.1875 C-4.705 15.1675 -5.035 17.1475 -5.375 19.1875 C-9.995 19.1875 -14.615 19.1875 -19.375 19.1875 C-19.76244724 12.79462058 -19.79857063 9.20885044 -15.375 4.1875 C-10.35845213 0.5505028 -6.10475737 0.03557551 0 0 Z M37.625 13.1875 C34.10027087 18.47459369 34.3202699 25.39008535 34.8125 31.625 C35.40376661 35.17745384 35.40376661 35.17745384 37.3125 37.75 C39.60541494 39.43868318 39.60541494 39.43868318 42.6875 39.3125 C45.74523061 38.4156652 45.74523061 38.4156652 47.5 35.9375 C49.41915121 29.54032931 50.21577906 21.54184012 47.125 15.375 C46.3825 14.2921875 46.3825 14.2921875 45.625 13.1875 C44.34625 13.125625 43.0675 13.06375 41.75 13 C41.03070312 12.96519531 40.31140625 12.93039063 39.5703125 12.89453125 C38.92835938 12.99121094 38.28640625 13.08789062 37.625 13.1875 Z M77.625 15.1875 C77.625 16.5075 77.625 17.8275 77.625 19.1875 C73.005 19.1875 68.385 19.1875 63.625 19.1875 C63.625 24.7975 63.625 30.4075 63.625 36.1875 C67.83323168 31.99439777 67.83323168 31.99439777 67.625 29.1875 C68.264375 28.94 68.90375 28.6925 69.5625 28.4375 C79.04074437 24.63121954 79.04074437 24.63121954 87.625 19.1875 C87.955 18.1975 88.285 17.2075 88.625 16.1875 C87.965 15.1975 87.305 14.2075 86.625 13.1875 C81.59481143 12.55904252 81.59481143 12.55904252 77.625 15.1875 Z M123.625 17.1875 C123.026875 18.095 122.42875 19.0025 121.8125 19.9375 C119.92520478 22.74148147 118.03963151 24.85910533 115.625 27.1875 C115.625 27.5175 115.625 27.8475 115.625 28.1875 C118.595 28.1875 121.565 28.1875 124.625 28.1875 C124.625 24.5575 124.625 20.9275 124.625 17.1875 C124.295 17.1875 123.965 17.1875 123.625 17.1875 Z M18.625 21.1875 C18.3775 22.13625 18.13 23.085 17.875 24.0625 C16.625 27.1875 16.625 27.1875 14.6875 28.5 C13 29.0625 11.3125 29.625 9.625 30.1875 C9.625 30.8475 9.625 31.5075 9.625 32.1875 C8.0471875 32.620625 8.0471875 32.620625 6.4375 33.0625 C3.39681289 33.95975193 0.53787656 34.95173419 -2.375 36.1875 C-2.375 36.8475 -2.375 37.5075 -2.375 38.1875 C5.215 38.5175 12.805 38.8475 20.625 39.1875 C20.295 33.2475 19.965 27.3075 19.625 21.1875 C19.295 21.1875 18.965 21.1875 18.625 21.1875 Z " fill="#EBD6CC" transform="translate(579.375,95.8125)"/>
<path d="M0 0 C7.59 0 15.18 0 23 0 C24.2375 4.269375 24.2375 4.269375 25.5 8.625 C25.89155273 9.95265381 25.89155273 9.95265381 26.29101562 11.30712891 C27.52346223 15.65297037 28.2955611 19.43358094 28 24 C28.66 24 29.32 24 30 24 C30.0825 22.824375 30.165 21.64875 30.25 20.4375 C31.00225458 13.43142747 33.10951202 6.76916663 35 0 C42.26 0 49.52 0 57 0 C57 16.17 57 32.34 57 49 C52.38 49 47.76 49 43 49 C42.67 41.74 42.34 34.48 42 27 C41.195625 29.51625 40.39125 32.0325 39.5625 34.625 C39.31056885 35.40568848 39.0586377 36.18637695 38.79907227 36.99072266 C38.49827759 37.94277588 38.49827759 37.94277588 38.19140625 38.9140625 C37.98717041 39.5529541 37.78293457 40.1918457 37.57250977 40.85009766 C36.86054996 43.52366611 36.4548494 46.27090362 36 49 C31.38 49 26.76 49 22 49 C21.65066406 47.65164062 21.30132812 46.30328125 20.94140625 44.9140625 C20.48188757 43.15101124 20.02224577 41.38799206 19.5625 39.625 C19.33240234 38.73554688 19.10230469 37.84609375 18.86523438 36.9296875 C18.64287109 36.07890625 18.42050781 35.228125 18.19140625 34.3515625 C17.98717041 33.56604004 17.78293457 32.78051758 17.57250977 31.97119141 C17.04905067 29.94810187 17.04905067 29.94810187 16 28 C15.67 34.93 15.34 41.86 15 49 C10.05 49 5.1 49 0 49 C0 32.83 0 16.66 0 0 Z M14 20 C15 22 15 22 15 22 Z " fill="#EBD6CC" transform="translate(381,97)"/>
<path d="M0 0 C6.93873451 3.4211816 11.29219692 8.18411288 14.875 15.01171875 C17.17922541 21.86953248 16.86169726 29.77954321 13.875 36.32421875 C9.84476035 43.40560028 3.77417313 48.7736197 -4.125 51.01171875 C-11.19401469 51.69737455 -16.87520348 51.45548418 -23.125 48.01171875 C-24.011875 47.53734375 -24.89875 47.06296875 -25.8125 46.57421875 C-31.36762499 42.82075592 -34.34810031 38.46323146 -36.125 32.01171875 C-37.11357394 22.40842907 -36.40885209 15.84091299 -31 7.88671875 C-27.75551384 4.18582169 -23.48175682 2.16013911 -19.125 0.01171875 C-13.64434729 -2.72860761 -5.65717467 -1.78908149 0 0 Z " fill="#ECD7CD" transform="translate(300.125,81.98828125)"/>
<path d="M0 0 C5.32125 -0.0825 10.6425 -0.165 16.125 -0.25 C17.79320801 -0.28641602 19.46141602 -0.32283203 21.18017578 -0.36035156 C22.51854164 -0.37204587 23.85692184 -0.38223594 25.1953125 -0.390625 C25.877146 -0.41108887 26.55897949 -0.43155273 27.26147461 -0.45263672 C32.2807304 -0.45626204 35.16675244 0.79482391 39 4 C39 4.66 39 5.32 39 6 C39.66 6 40.32 6 41 6 C41.76761645 10.94686159 42.32015518 15.07942161 41 20 C40.01 20.495 40.01 20.495 39 21 C39.57562828 24.33864404 40.59063616 25.69102632 43 28 C44.45667817 32.3700345 44.86982886 36.61269796 43.28125 40.97265625 C41.15962928 45.00202463 39.08616584 47.11833683 35 49 C32.20589176 49.25171334 29.64141938 49.35153135 26.85546875 49.29296875 C26.17246704 49.28994751 25.48946533 49.28692627 24.7857666 49.28381348 C22.25285568 49.26820686 19.72016146 49.22632307 17.1875 49.1875 C11.515625 49.125625 5.84375 49.06375 0 49 C0 32.83 0 16.66 0 0 Z M15 12 C15 14.31 15 16.62 15 19 C16.45823212 19.0270043 17.91660675 19.04639787 19.375 19.0625 C20.59316406 19.07990234 20.59316406 19.07990234 21.8359375 19.09765625 C24.04937142 19.14466334 24.04937142 19.14466334 26 18 C26 16.02 26 14.04 26 12 C22.37 12 18.74 12 15 12 Z M15 30 C15 32.31 15 34.62 15 37 C18.96 37 22.92 37 27 37 C27.33 35.35 27.66 33.7 28 32 C26.16262173 29.72783152 26.16262173 29.72783152 23.3984375 29.8046875 C22.40070312 29.82789062 21.40296875 29.85109375 20.375 29.875 C19.37210938 29.89304687 18.36921875 29.91109375 17.3359375 29.9296875 C16.17964844 29.96449219 16.17964844 29.96449219 15 30 Z " fill="#EBD6CC" transform="translate(502,97)"/>
<path d="M0 0 C12.87 0 25.74 0 39 0 C39 4.29 39 8.58 39 13 C31.08 13 23.16 13 15 13 C15 14.65 15 16.3 15 18 C22.26 18 29.52 18 37 18 C37 22.29 37 26.58 37 31 C29.74 31 22.48 31 15 31 C15 32.65 15 34.3 15 36 C22.92 36 30.84 36 39 36 C39 40.29 39 44.58 39 49 C26.13 49 13.26 49 0 49 C0 32.83 0 16.66 0 0 Z " fill="#EBD6CC" transform="translate(341,97)"/>
<path d="M0 0 C4.95 0 9.9 0 15 0 C15.04898437 2.43117188 15.09796875 4.86234375 15.1484375 7.3671875 C15.20241927 9.71702326 15.25973767 12.0667555 15.31738281 14.41650391 C15.35570852 16.0518424 15.39055507 17.68726624 15.421875 19.32275391 C15.46744842 21.6712091 15.52545367 24.01907495 15.5859375 26.3671875 C15.59748871 27.10057343 15.60903992 27.83395935 15.62094116 28.58956909 C15.61868097 32.74977105 15.61868097 32.74977105 18 36 C20.21072977 36.24253813 20.21072977 36.24253813 22.625 36.125 C23.44226563 36.10695312 24.25953125 36.08890625 25.1015625 36.0703125 C25.72804688 36.04710937 26.35453125 36.02390625 27 36 C29.31058985 32.35170023 29.34281599 28.79931605 29.4140625 24.609375 C29.43342865 23.90476135 29.4527948 23.20014771 29.4727478 22.47418213 C29.53232735 20.23290961 29.57884123 17.99158511 29.625 15.75 C29.66319979 14.22654062 29.70225269 12.70310238 29.7421875 11.1796875 C29.83961103 7.45323761 29.91934735 3.72700139 30 0 C34.95 0 39.9 0 45 0 C45.09948577 4.98041064 45.17175686 9.96023252 45.21972656 14.94140625 C45.2397406 16.63291511 45.26696073 18.32435567 45.30175781 20.015625 C45.35073065 22.45850554 45.37307033 24.90046511 45.390625 27.34375 C45.41127014 28.08991577 45.43191528 28.83608154 45.45318604 29.6048584 C45.45545161 35.00508361 44.32881295 39.63656258 41 44 C38.86090088 45.22399902 38.86090088 45.22399902 37 46 C37 46.66 37 47.32 37 48 C26.57333401 51.72697848 18.33531813 52.19404214 8 48 C8 47.34 8 46.68 8 46 C7.01 46 6.02 46 5 46 C1.38185714 39.69742857 -0.14526672 36.08140947 -0.09765625 28.7109375 C-0.0962413 27.89251373 -0.09482635 27.07408997 -0.09336853 26.23086548 C-0.0877629 23.61220675 -0.07520948 20.99363296 -0.0625 18.375 C-0.05748572 16.60156373 -0.05292269 14.82812613 -0.04882812 13.0546875 C-0.03779164 8.70309218 -0.02052325 4.3515605 0 0 Z " fill="#EBD6CD" transform="translate(455,97)"/>
<path d="M0 0 C1.27713867 -0.04350586 1.27713867 -0.04350586 2.58007812 -0.08789062 C8.33541894 -0.14575561 11.36984552 0.60674515 15.8125 4.3125 C17.45995596 5.95995596 16.9834616 7.86585451 17 10.125 C17.01417969 10.99769531 17.02835938 11.87039062 17.04296875 12.76953125 C16.8125 15.3125 16.8125 15.3125 15.67578125 17.38671875 C15.39089844 18.02222656 15.10601563 18.65773437 14.8125 19.3125 C15.65264165 21.24377989 15.65264165 21.24377989 16.8125 23.3125 C17.09730806 25.3867625 17.30124224 27.47321439 17.4375 29.5625 C17.51226563 30.64015625 17.58703125 31.7178125 17.6640625 32.828125 C17.71304688 33.64796875 17.76203125 34.4678125 17.8125 35.3125 C15.8325 35.3125 13.8525 35.3125 11.8125 35.3125 C10.37804886 32.44359771 10.38176882 29.57445706 10.09375 26.40625 C9.920345 24.25806067 9.920345 24.25806067 8.8125 22.3125 C5.76668731 21.84295739 5.76668731 21.84295739 2.25 21.6875 C0.125625 21.56375 -1.99875 21.44 -4.1875 21.3125 C-4.1875 25.9325 -4.1875 30.5525 -4.1875 35.3125 C-6.1675 35.3125 -8.1475 35.3125 -10.1875 35.3125 C-10.2121519 30.48869198 -10.23033693 25.66492033 -10.24243164 20.84106445 C-10.24747174 19.19880536 -10.25430378 17.55655077 -10.26293945 15.91430664 C-10.27501926 13.55874521 -10.28073139 11.20324291 -10.28515625 8.84765625 C-10.29031754 8.10910904 -10.29547882 7.37056183 -10.30079651 6.6096344 C-10.3009925 4.84351912 -10.24944719 3.07752854 -10.1875 1.3125 C-7.9597924 -0.9152076 -2.9886335 0.03318246 0 0 Z M-4.1875 5.3125 C-4.1875 8.9425 -4.1875 12.5725 -4.1875 16.3125 C-2.62 16.333125 -1.0525 16.35375 0.5625 16.375 C1.44421875 16.38660156 2.3259375 16.39820313 3.234375 16.41015625 C5.631946 16.31933917 7.56077108 16.13131051 9.8125 15.3125 C11.39862501 13.05553573 11.39862501 13.05553573 11.8125 10.3125 C10.1483761 7.15942313 9.23697685 6.45399228 5.8125 5.3125 C4.08454648 5.24447033 2.35414635 5.22754355 0.625 5.25 C-1.7571875 5.2809375 -1.7571875 5.2809375 -4.1875 5.3125 Z " fill="#EBD6CC" transform="translate(538.1875,164.6875)"/>
<path d="M0 0 C3.01125 -0.061875 6.0225 -0.12375 9.125 -0.1875 C10.06230957 -0.21481201 10.99961914 -0.24212402 11.96533203 -0.27026367 C17.05823607 -0.32070457 20.61308502 0.10575737 25 3 C26.22485812 5.44971624 26.16722808 7.14234461 26.1875 9.875 C26.20167969 10.73867187 26.21585937 11.60234375 26.23046875 12.4921875 C25.98859252 15.1241288 25.32983541 16.73980544 24 19 C24.66 19.99 25.32 20.98 26 22 C26.4140625 25.13671875 26.4140625 25.13671875 26.625 28.6875 C26.69976562 29.86699219 26.77453125 31.04648438 26.8515625 32.26171875 C26.90054687 33.16535156 26.94953125 34.06898438 27 35 C25.02 35 23.04 35 21 35 C20.86722656 34.14535156 20.73445313 33.29070312 20.59765625 32.41015625 C20.33275391 30.75306641 20.33275391 30.75306641 20.0625 29.0625 C19.88847656 27.96035156 19.71445312 26.85820312 19.53515625 25.72265625 C19.28154864 23.09573071 19.28154864 23.09573071 18 22 C13.67509147 21.5347708 9.34064463 21.29499527 5 21 C5 25.62 5 30.24 5 35 C3.35 35 1.7 35 0 35 C0 23.45 0 11.9 0 0 Z M5 5 C5 8.63 5 12.26 5 16 C6.7325 16.04125 8.465 16.0825 10.25 16.125 C11.22453125 16.14820313 12.1990625 16.17140625 13.203125 16.1953125 C16.0559563 15.99609244 17.64203872 15.58823599 20 14 C21.08024658 11.59889783 21.08024658 11.59889783 21 9 C19.18682851 6.46155991 18.01532925 6.00510975 15 5 C13.27204648 4.93197033 11.54164635 4.91504355 9.8125 4.9375 C7.4303125 4.9684375 7.4303125 4.9684375 5 5 Z " fill="#ECD6CD" transform="translate(414,165)"/>
<path d="M0 0 C5.05178447 2.26459304 6.99823116 4.88436853 9 10 C9 10.66 9 11.32 9 12 C6.3125 12.375 6.3125 12.375 3 12 C1.28859531 10.03814584 -0.37873325 8.03697617 -2 6 C-4.33333333 4.66666667 -4.33333333 4.66666667 -7 5 C-10.68825148 6.37609383 -13.34093837 7.93977042 -15.4375 11.3125 C-16.56971716 16.72198201 -16.36157404 20.99901967 -14 26 C-13.67 26.99 -13.34 27.98 -13 29 C-8.40744315 29.82666023 -4.51752993 30.36576486 0 29 C1.77409519 26.55005903 2.37046393 23.93783498 3 21 C4.98 21 6.96 21 9 21 C8.49080812 25.37905014 7.67804488 28.46115497 5 32 C0.99004544 34.98582948 -2.04545349 35.43216105 -7 35.4375 C-8.794375 35.46650391 -8.794375 35.46650391 -10.625 35.49609375 C-15.56617262 34.76978713 -17.73142229 32.57947641 -20.78515625 28.77734375 C-22.44807894 24.97561375 -22.4767404 21.66847302 -22.4375 17.5625 C-22.45748047 16.82451172 -22.47746094 16.08652344 -22.49804688 15.32617188 C-22.49341523 10.1155668 -21.50696524 7.07047761 -18 3 C-12.58599956 -1.26093545 -6.58228144 -0.73688434 0 0 Z " fill="#EBD6CC" transform="translate(365,165)"/>
<path d="M0 0 C1.98 0 3.96 0 6 0 C6.31453125 0.76183594 6.6290625 1.52367187 6.953125 2.30859375 C8.94757556 7.12050611 10.94453452 11.92840624 13.0625 16.6875 C13.37832031 17.39777344 13.69414063 18.10804688 14.01953125 18.83984375 C14.70955354 20.36009206 15.41692183 21.87252712 16.13671875 23.37890625 C19.55899849 30.6677617 19.55899849 30.6677617 19 35 C17.35 35 15.7 35 14 35 C12.68 32.03 11.36 29.06 10 26 C3.07 25.505 3.07 25.505 -4 25 C-4.33 26.65 -4.66 28.3 -5 30 C-6.25 32.8125 -6.25 32.8125 -8 35 C-10.6875 35.3125 -10.6875 35.3125 -13 35 C-12.43698141 30.90913089 -11.52681184 27.46697677 -9.875 23.6875 C-7.5983776 18.39318456 -5.37452525 13.08177834 -3.1875 7.75 C-2.57693961 6.265577 -1.96627202 4.78119808 -1.35546875 3.296875 C-0.90816406 2.20890625 -0.46085938 1.1209375 0 0 Z M3 8 C2.32645501 9.43429001 1.66140299 10.87257057 1 12.3125 C0.62875 13.11300781 0.2575 13.91351563 -0.125 14.73828125 C-1.18040667 17.06213959 -1.18040667 17.06213959 -1 20 C1.97 20 4.94 20 8 20 C7.566875 18.700625 7.566875 18.700625 7.125 17.375 C6.08333333 14.25 5.04166667 11.125 4 8 C3.67 8 3.34 8 3 8 Z " fill="#EBD5CC" transform="translate(573,165)"/>
<path d="M0 0 C2.8125 -0.3125 2.8125 -0.3125 6 0 C8.66062764 3.26859911 9.92362193 7.13209027 11.375 11.0625 C13.43366571 16.55851362 15.64768977 21.96050049 17.984375 27.34375 C18.96122888 29.8985986 19.55118762 32.3071257 20 35 C18.02 35 16.04 35 14 35 C11.96564469 31.27034861 11 29.33094958 11 25 C6.05 25 1.1 25 -4 25 C-4.66 27.31 -5.32 29.62 -6 32 C-6.33 32.99 -6.66 33.98 -7 35 C-8.98 35 -10.96 35 -13 35 C-12.38676017 29.85201303 -10.77206077 25.59136478 -8.75 20.875 C-8.43861084 20.13451416 -8.12722168 19.39402832 -7.80639648 18.63110352 C-7.17606474 17.13303395 -6.54319857 15.63602808 -5.90771484 14.14013672 C-4.60951806 11.07935323 -3.33682545 8.00829571 -2.0625 4.9375 C-1.37538101 3.29150756 -0.68804673 1.64560485 0 0 Z M3 9 C0.52214277 12.66291938 -0.48964169 15.6109185 -1 20 C1.97 20 4.94 20 8 20 C7.54917531 18.53932801 7.08906463 17.08151968 6.625 15.625 C6.36976563 14.81289062 6.11453125 14.00078125 5.8515625 13.1640625 C5.10145717 10.83540815 5.10145717 10.83540815 3 9 Z " fill="#EBD5CC" transform="translate(700,165)"/>
<path d="M0 0 C1.65 0 3.3 0 5 0 C5.33 4.95 5.66 9.9 6 15 C8.165625 12.7725 8.165625 12.7725 10.375 10.5 C11.87440511 8.95775474 13.40891998 7.44748074 15 6 C15.66 6 16.32 6 17 6 C17.33 5.01 17.66 4.02 18 3 C18.66 3 19.32 3 20 3 C20.33 2.01 20.66 1.02 21 0 C23.31 0 25.62 0 28 0 C26.54616625 3.36716935 24.69038509 5.52270045 22.0625 8.0625 C21.02802734 9.06990234 21.02802734 9.06990234 19.97265625 10.09765625 C19.32167969 10.72542969 18.67070313 11.35320312 18 12 C16.99777035 12.99776537 15.99687013 13.9968799 15 15 C15.33 15.99 15.66 16.98 16 18 C16.66 18 17.32 18 18 18 C19.44963959 19.90374355 20.81184323 21.87467159 22.125 23.875 C22.84945312 24.96554688 23.57390625 26.05609375 24.3203125 27.1796875 C26 30 26 30 26 32 C26.66 32 27.32 32 28 32 C28 32.99 28 33.98 28 35 C25.32421875 35.39453125 25.32421875 35.39453125 22 35 C19.95226836 32.89830178 18.43911564 31.07540222 16.8125 28.6875 C13.25352685 23.5510515 13.25352685 23.5510515 9 19 C9 19.66 9 20.32 9 21 C8.01 21.66 7.02 22.32 6 23 C5.41518879 25.88595946 5.41518879 25.88595946 5.3125 29.125 C5.24675781 30.22070312 5.18101562 31.31640625 5.11328125 32.4453125 C5.07589844 33.28835937 5.03851562 34.13140625 5 35 C3.35 35 1.7 35 0 35 C0 23.45 0 11.9 0 0 Z " fill="#EBD6CC" transform="translate(614,165)"/>
<path d="M0 0 C7.92 0 15.84 0 24 0 C24 1.65 24 3.3 24 5 C17.73 5 11.46 5 5 5 C5 8.3 5 11.6 5 15 C10.94 15 16.88 15 23 15 C23 16.32 23 17.64 23 19 C17.06 19 11.12 19 5 19 C5 22.63 5 26.26 5 30 C11.27 30 17.54 30 24 30 C24 31.65 24 33.3 24 35 C16.08 35 8.16 35 0 35 C0 23.45 0 11.9 0 0 Z " fill="#EBD7CC" transform="translate(496,165)"/>
<path d="M0 0 C7.92 0 15.84 0 24 0 C24 1.65 24 3.3 24 5 C17.73 5 11.46 5 5 5 C5 8.3 5 11.6 5 15 C10.61 15 16.22 15 22 15 C22 16.32 22 17.64 22 19 C16.39 19 10.78 19 5 19 C5 22.63 5 26.26 5 30 C11.27 30 17.54 30 24 30 C24 31.65 24 33.3 24 35 C16.08 35 8.16 35 0 35 C0 23.45 0 11.9 0 0 Z " fill="#EBD6CD" transform="translate(382,165)"/>
<path d="M0 0 C9.24 0 18.48 0 28 0 C28 1.65 28 3.3 28 5 C24.37 5 20.74 5 17 5 C17 14.9 17 24.8 17 35 C15.02 35 13.04 35 11 35 C11 25.1 11 15.2 11 5 C7.37 5 3.74 5 0 5 C0 3.35 0 1.7 0 0 Z " fill="#ECD6CC" transform="translate(461,165)"/>
<path d="M0 0 C9.24 0 18.48 0 28 0 C28.33 1.65 28.66 3.3 29 5 C25.04 5 21.08 5 17 5 C17 14.9 17 24.8 17 35 C15.35 35 13.7 35 12 35 C12 25.1 12 15.2 12 5 C8.04 5 4.08 5 0 5 C0 3.35 0 1.7 0 0 Z " fill="#ECD7CD" transform="translate(660,165)"/>
<path d="M0 0 C1.65 0 3.3 0 5 0 C5 11.55 5 23.1 5 35 C3.02 35 1.04 35 -1 35 C-1.0246519 30.17619198 -1.04283693 25.35242033 -1.05493164 20.52856445 C-1.05997174 18.88630536 -1.06680378 17.24405077 -1.07543945 15.60180664 C-1.08751926 13.24624521 -1.09323139 10.89074291 -1.09765625 8.53515625 C-1.10281754 7.79660904 -1.10797882 7.05806183 -1.11329651 6.2971344 C-1.1134925 4.53101912 -1.06194719 2.76502854 -1 1 C-0.67 0.67 -0.34 0.34 0 0 Z " fill="#ECD8CD" transform="translate(649,165)"/>
<path d="M0 0 C1.65 0 3.3 0 5 0 C6.70492881 1.70492881 6.1280442 3.84534261 6.13894653 6.11901855 C6.1369223 6.83255493 6.13489807 7.54609131 6.1328125 8.28125 C6.13376923 9.00993286 6.13472595 9.73861572 6.13571167 10.48937988 C6.13639335 12.0327971 6.13453988 13.57621717 6.13037109 15.11962891 C6.12502262 17.489974 6.13031642 19.86012959 6.13671875 22.23046875 C6.13605797 23.72656292 6.1347768 25.22265697 6.1328125 26.71875 C6.13483673 27.43228638 6.13686096 28.14582275 6.13894653 28.88098145 C6.11495191 33.88504809 6.11495191 33.88504809 5 35 C3.35 35 1.7 35 0 35 C0 23.45 0 11.9 0 0 Z " fill="#EAD7CA" transform="translate(449,165)"/>
</svg>
