<?xml version="1.0" encoding="UTF-8"?>
<svg version="1.1" xmlns="http://www.w3.org/2000/svg" width="238" height="88">
<path d="M0 0 C0.68578125 -0.01224609 1.3715625 -0.02449219 2.078125 -0.03710938 C6.43788676 -0.04958961 9.98239465 0.48360487 14 2.1875 C16.60186108 4.78936108 16.29810177 6.01104355 16.3125 9.625 C16.32925781 10.59308594 16.34601563 11.56117187 16.36328125 12.55859375 C15.93789221 15.63694666 15.41936296 16.32566896 13 18.1875 C11.00708008 18.4362793 11.00708008 18.4362793 8.76953125 18.26171875 C7.96708984 18.20693359 7.16464844 18.15214844 6.33789062 18.09570312 C5.50451172 18.02287109 4.67113281 17.95003906 3.8125 17.875 C2.5450293 17.7831543 2.5450293 17.7831543 1.25195312 17.68945312 C-0.83312095 17.53631209 -2.91675276 17.36375843 -5 17.1875 C-5 17.8475 -5 18.5075 -5 19.1875 C-5.928125 19.455625 -6.85625 19.72375 -7.8125 20 C-13.01232934 21.93719132 -14.89113999 25.21514397 -17.203125 30.0703125 C-18.85005471 34.4459787 -18.44162353 37.91458512 -16.9375 42.25 C-13.74910708 47.08401507 -9.40901096 50.98496713 -4 53.1875 C-1.74080208 53.46414195 -1.74080208 53.46414195 0.5625 53.375 C1.32691406 53.36855469 2.09132812 53.36210938 2.87890625 53.35546875 C5.18897716 53.25803505 5.18897716 53.25803505 8 52.1875 C11.74242418 51.84727962 14.1286211 51.69595293 17.4375 53.5625 C19.86690504 57.64390046 19.74639826 61.56290871 19 66.1875 C17.4375 68.75 17.4375 68.75 15 70.1875 C9.99200458 71.11214847 5.07872684 71.34168809 0 71.3125 C-0.67289063 71.31636719 -1.34578125 71.32023437 -2.0390625 71.32421875 C-13.88615208 71.30134792 -13.88615208 71.30134792 -17 68.1875 C-18.92753941 67.15947898 -20.86188265 66.24492925 -22.87890625 65.40625 C-28.50844168 62.17159981 -32.86000719 55.60362803 -35 49.5625 C-37.38990958 39.81783641 -37.60123465 26.93981498 -32.8125 17.9609375 C-28.2747975 10.58717093 -22.16794683 4.38365311 -14 1.1875 C-9.33058558 0.2141381 -4.75385446 0.00446791 0 0 Z " fill="#0B7B8D" transform="translate(58,8.8125)"/>
<path d="M0 0 C1.33542939 0.32483418 2.66961551 0.6550855 4 1 C4.99 0.67 5.98 0.34 7 0 C10.09440017 -0.15472001 12.02663737 0.00887912 15 1 C16.33599921 0.67751743 17.66893378 0.34227417 19 0 C22.52702454 -0.29391871 24.34951441 -0.41083301 27.375 1.5 C27.91125 1.995 28.4475 2.49 29 3 C29.66 2.34 30.32 1.68 31 1 C34.625 0.875 34.625 0.875 38 1 C38 3.64 38 6.28 38 9 C38.66 9 39.32 9 40 9 C40 10.65 40 12.3 40 14 C39.34 14 38.68 14 38 14 C38.495 15.485 38.495 15.485 39 17 C36.69 17 34.38 17 32 17 C32.495 15.515 32.495 15.515 33 14 C31.02 14 29.04 14 27 14 C27.495 15.485 27.495 15.485 28 17 C15.13 17 2.26 17 -11 17 C-11 11 -11 11 -9 8 C-9.80161791 5.32854463 -9.80161791 5.32854463 -11 3 C-8.30085967 -1.04871049 -4.3708996 -0.39815887 0 0 Z M27 4 C28 7 28 7 28 7 Z M8 5 C7.67 6.65 7.34 8.3 7 10 C8.485 10.99 8.485 10.99 10 12 C10 10.02 10 8.04 10 6 C9.34 5.67 8.68 5.34 8 5 Z M20 5 C20.66 5.66 21.32 6.32 22 7 C22 6.34 22 5.68 22 5 C21.34 5 20.68 5 20 5 Z M15 7 C15.33 8.32 15.66 9.64 16 11 C16.99 9.68 17.98 8.36 19 7 C17.68 7 16.36 7 15 7 Z M32 7 C33 9 33 9 33 9 Z M1 10 C0.67 10.66 0.34 11.32 0 12 C0.66 12 1.32 12 2 12 C1.67 11.34 1.34 10.68 1 10 Z M2 14 C3 16 3 16 3 16 Z " fill="#3A8E9B" transform="translate(176,28)"/>
<path d="M0 0 C0.66 0.66 1.32 1.32 2 2 C2.495 2.391875 2.99 2.78375 3.5 3.1875 C5.69527147 5.8401197 6.17379935 8.69519741 7 12 C7.33 12.99 7.66 13.98 8 15 C8.60328125 14.91621094 9.2065625 14.83242188 9.828125 14.74609375 C10.62734375 14.64425781 11.4265625 14.54242188 12.25 14.4375 C13.03890625 14.33308594 13.8278125 14.22867188 14.640625 14.12109375 C17.04888256 13.99749113 18.74556188 14.1545857 21 15 C22.8443955 18.3199119 23.5643106 21.23792934 23 25 C21.625 27.8125 21.625 27.8125 19 30 C15.58131064 30.64904741 12.39188262 30.82107342 9 30 C6.93196215 27.79839177 6.06237619 26.19158402 5.125 23.3125 C4.22344382 20.7935314 4.22344382 20.7935314 1.75 20.125 C-1.05381002 19.90155566 -1.05381002 19.90155566 -4 20.5 C-8.20646994 21.20107832 -10.65276728 20.80105729 -14.3125 18.625 C-17.0770053 14.32465841 -16.80521425 9.94840757 -16 5 C-12.44761618 -1.24729569 -6.53211559 -0.99927694 0 0 Z " fill="#D5D9F4" transform="translate(71,35)"/>
<path d="M0 0 C0 5.61 0 11.22 0 17 C-10.23 17 -20.46 17 -31 17 C-30.67 11.72 -30.34 6.44 -30 1 C-23 1 -16 1 -9 1 C-7.64447517 0.84476607 -6.29038315 0.67678328 -4.9375 0.5 C-1 0 -1 0 0 0 Z M-9 3 C-9.33 4.32 -9.66 5.64 -10 7 C-9.34 5.68 -8.68 4.36 -8 3 C-8.33 3 -8.66 3 -9 3 Z M-25 6 C-25 6.33 -25 6.66 -25 7 C-22.69 7 -20.38 7 -18 7 C-18 6.67 -18 6.34 -18 6 C-20.31 6 -22.62 6 -25 6 Z M-6 10 C-6.33 11.98 -6.66 13.96 -7 16 C-6.34 16 -5.68 16 -5 16 C-5 14.02 -5 12.04 -5 10 C-5.33 10 -5.66 10 -6 10 Z M-25 11 C-25 11.33 -25 11.66 -25 12 C-22.69 12 -20.38 12 -18 12 C-18 11.67 -18 11.34 -18 11 C-20.31 11 -22.62 11 -25 11 Z M-13 12 C-12 15 -12 15 -12 15 Z " fill="#D4D7EC" transform="translate(131,28)"/>
<path d="M0 0 C1.17046875 0.10183594 2.3409375 0.20367188 3.546875 0.30859375 C4.43890625 0.39238281 5.3309375 0.47617187 6.25 0.5625 C7.25259507 3.57028521 7.55314642 6.10070647 7.8125 9.25 C7.93818359 10.74080078 7.93818359 10.74080078 8.06640625 12.26171875 C8.12699219 13.02097656 8.18757813 13.78023437 8.25 14.5625 C3.67734569 17.61093621 -0.87214604 16.89137593 -6.25 16.875 C-7.83748047 16.89916992 -7.83748047 16.89916992 -9.45703125 16.92382812 C-10.47152344 16.92447266 -11.48601562 16.92511719 -12.53125 16.92578125 C-13.9244043 16.93025269 -13.9244043 16.93025269 -15.34570312 16.93481445 C-17.75 16.5625 -17.75 16.5625 -19.5715332 15.23583984 C-21.48482895 12.51909465 -20.78754769 10.08907428 -20.4375 6.875 C-20.31761719 5.69550781 -20.19773438 4.51601563 -20.07421875 3.30078125 C-19.91373047 1.94533203 -19.91373047 1.94533203 -19.75 0.5625 C-18.1 0.5625 -16.45 0.5625 -14.75 0.5625 C-14.42 3.8625 -14.09 7.1625 -13.75 10.5625 C-12.76 10.5625 -11.77 10.5625 -10.75 10.5625 C-10.75 7.2625 -10.75 3.9625 -10.75 0.5625 C-6.73012591 -0.44246852 -4.0853027 -0.36767724 0 0 Z M-0.75 4.5625 C-0.75 5.2225 -0.75 5.8825 -0.75 6.5625 C0.24 6.2325 1.23 5.9025 2.25 5.5625 C1.26 5.2325 0.27 4.9025 -0.75 4.5625 Z M-6.75 11.5625 C-5.75 15.5625 -5.75 15.5625 -5.75 15.5625 Z " fill="#B2B5CC" transform="translate(154.75,28.4375)"/>
<path d="M0 0 C0.71091797 -0.00386719 1.42183594 -0.00773438 2.15429688 -0.01171875 C5.30811884 -0.00578494 7.79919395 0.12056465 10.8125 1.125 C12.5 3.6875 12.5 3.6875 13.8125 6.125 C12.54535156 6.10179687 11.27820313 6.07859375 9.97265625 6.0546875 C8.27344345 6.03591167 6.5742242 6.01771343 4.875 6 C4.04419922 5.98324219 3.21339844 5.96648438 2.35742188 5.94921875 C-4.52838114 5.89563273 -11.17479453 6.07619337 -17.0078125 10.04296875 C-17.76835938 10.79191406 -18.52890625 11.54085938 -19.3125 12.3125 C-20.55386719 13.51132812 -20.55386719 13.51132812 -21.8203125 14.734375 C-22.99207031 15.91773438 -22.99207031 15.91773438 -24.1875 17.125 C-24.88617188 17.81078125 -25.58484375 18.4965625 -26.3046875 19.203125 C-27.94979325 20.82775225 -29.57343118 22.46966237 -31.1875 24.125 C-31.8475 24.785 -32.5075 25.445 -33.1875 26.125 C-34.33203125 24.421875 -34.33203125 24.421875 -35.1875 22.125 C-32.14823036 13.40748514 -24.68169739 6.85676704 -17 2.1875 C-11.43799764 0.08629911 -5.88678153 -0.03255363 0 0 Z " fill="#006F80" transform="translate(58.1875,8.875)"/>
<path d="M0 0 C4.21751282 -0.04946113 8.43487168 -0.08574827 12.65258789 -0.10986328 C14.08718812 -0.119917 15.52176789 -0.13356194 16.95629883 -0.15087891 C19.01909438 -0.17515549 21.08161885 -0.18648919 23.14453125 -0.1953125 C24.38565674 -0.20578613 25.62678223 -0.21625977 26.90551758 -0.22705078 C30 0 30 0 33 2 C33.6875 4.625 33.6875 4.625 34 7 C34.226875 6.21625 34.45375 5.4325 34.6875 4.625 C36 2 36 2 38.625 0.6875 C39.40875 0.460625 40.1925 0.23375 41 0 C41.69965443 1.26418246 42.38434763 2.53665402 43.0625 3.8125 C43.44535156 4.52019531 43.82820313 5.22789063 44.22265625 5.95703125 C45 8 45 8 44 11 C42.02 10.34 40.04 9.68 38 9 C37.67 9.99 37.34 10.98 37 12 C35.02 11.67 33.04 11.34 31 11 C30.67 10.01 30.34 9.02 30 8 C29.01 7.67 28.02 7.34 27 7 C27.33 8.65 27.66 10.3 28 12 C27.01 11.67 26.02 11.34 25 11 C25 7.7 25 4.4 25 1 C24.67 1.66 24.34 2.32 24 3 C22.02 3 20.04 3 18 3 C17.67 3.66 17.34 4.32 17 5 C18.65 5 20.3 5 22 5 C22 5.99 22 6.98 22 8 C19.525 7.505 19.525 7.505 17 7 C17 7.66 17 8.32 17 9 C19.31 9 21.62 9 24 9 C23.67 9.66 23.34 10.32 23 11 C20.36 11 17.72 11 15 11 C14.67 8.36 14.34 5.72 14 3 C13.01 3 12.02 3 11 3 C10.67 5.64 10.34 8.28 10 11 C9.34 11 8.68 11 8 11 C8 8.36 8 5.72 8 3 C7.0409375 2.7834375 7.0409375 2.7834375 6.0625 2.5625 C4 2 4 2 3 1 C3 4.3 3 7.6 3 11 C2.34 11 1.68 11 1 11 C0.67 7.37 0.34 3.74 0 0 Z M27 3 C27 3.66 27 4.32 27 5 C27.66 5 28.32 5 29 5 C29 4.34 29 3.68 29 3 C28.34 3 27.68 3 27 3 Z M33 7 C33 7.66 33 8.32 33 9 C33.66 8.67 34.32 8.34 35 8 C34.34 7.67 33.68 7.34 33 7 Z " fill="#DFE0E8" transform="translate(132,49)"/>
<path d="M0 0 C1.32 0.33 2.64 0.66 4 1 C5.34352215 0.71045358 6.67762517 0.37445121 8 0 C11.33010922 -0.26472908 14.66044963 -0.2767191 18 -0.3125 C19.35351562 -0.35600586 19.35351562 -0.35600586 20.734375 -0.40039062 C27.34940678 -0.4639967 27.34940678 -0.4639967 30.546875 1.81640625 C32.29061413 4.43670242 33.17447003 6.97305677 34 10 C33.01 10.33 32.02 10.66 31 11 C30.360625 10.649375 29.72125 10.29875 29.0625 9.9375 C28.381875 9.628125 27.70125 9.31875 27 9 C24.76529595 9.78309467 24.76529595 9.78309467 23 11 C23 8.37886292 23.31292445 6.49064888 24 4 C23.01 3.67 22.02 3.34 21 3 C21 5.97 21 8.94 21 12 C20.01 12 19.02 12 18 12 C18 9.03 18 6.06 18 3 C16.68 3 15.36 3 14 3 C14 5.97 14 8.94 14 12 C7.47692308 12.36923077 7.47692308 12.36923077 5.0625 10.5 C4.711875 10.005 4.36125 9.51 4 9 C3.67 9.66 3.34 10.32 3 11 C2.34 11 1.68 11 1 11 C0.67 7.37 0.34 3.74 0 0 Z M10 1 C7.73197594 3.69990757 7.73197594 3.69990757 8.25 6.125 C8.83736927 8.1955029 8.83736927 8.1955029 11 9 C11 6.36 11 3.72 11 1 C10.67 1 10.34 1 10 1 Z " fill="#A3A5B3" transform="translate(181,49)"/>
<path d="M0 0 C1.93681161 -0.08107583 3.8745934 -0.13922475 5.8125 -0.1875 C6.89144531 -0.22230469 7.97039062 -0.25710937 9.08203125 -0.29296875 C12 0 12 0 13.83203125 1.30078125 C15.7705907 4.12109349 15.88379874 6.63016343 16 10 C14.82009116 12.85662139 14.09513475 14.49154458 11.25 15.8125 C10.5075 15.874375 9.765 15.93625 9 16 C7.824375 16.103125 6.64875 16.20625 5.4375 16.3125 C2 16 2 16 0.1875 14.3125 C-1.63753316 10.75848806 -3 8.04257856 -3 4 C-1.68 3.67 -0.36 3.34 1 3 C0.67 2.01 0.34 1.02 0 0 Z " fill="#CCD0EA" transform="translate(78,49)"/>
<path d="M0 0 C2.4375 1 2.4375 1 4 3 C4.75174445 5.67286916 5.16791812 8.22375372 5 11 C2.05863708 15.41204437 2.05863708 15.41204437 0 17 C-2.41015625 17.1796875 -2.41015625 17.1796875 -5.0625 16.875 C-5.94035156 16.78992188 -6.81820312 16.70484375 -7.72265625 16.6171875 C-10 16 -10 16 -12 13 C-12.66992163 8.77014599 -12.68330476 5.1673123 -10.5 1.4375 C-6.94599417 -0.60605335 -4.0030998 -0.64937348 0 0 Z " fill="#1B8192" transform="translate(90,24)"/>
<path d="M0 0 C1.670625 0.061875 1.670625 0.061875 3.375 0.125 C3.375 2.765 3.375 5.405 3.375 8.125 C4.035 8.125 4.695 8.125 5.375 8.125 C5.375 9.775 5.375 11.425 5.375 13.125 C4.715 13.125 4.055 13.125 3.375 13.125 C3.705 14.115 4.035 15.105 4.375 16.125 C2.065 16.125 -0.245 16.125 -2.625 16.125 C-2.295 15.135 -1.965 14.145 -1.625 13.125 C-3.605 13.125 -5.585 13.125 -7.625 13.125 C-7.295 14.115 -6.965 15.105 -6.625 16.125 C-11.905 16.125 -17.185 16.125 -22.625 16.125 C-21.965 15.465 -21.305 14.805 -20.625 14.125 C-17.8046875 14.1484375 -17.8046875 14.1484375 -14.5 14.5 C-13.40429688 14.61085938 -12.30859375 14.72171875 -11.1796875 14.8359375 C-10.33664063 14.93132813 -9.49359375 15.02671875 -8.625 15.125 C-8.625 14.135 -8.625 13.145 -8.625 12.125 C-10.605 12.125 -12.585 12.125 -14.625 12.125 C-13.635 11.465 -12.645 10.805 -11.625 10.125 C-7.24820885 7.00701812 -7.24820885 7.00701812 -5.625 2.125 C-3.625 0.125 -3.625 0.125 0 0 Z M-2.625 6.125 C-1.625 8.125 -1.625 8.125 -1.625 8.125 Z " fill="#4D929C" transform="translate(210.625,28.875)"/>
<path d="M0 0 C0 5.61 0 11.22 0 17 C-2.31 17 -4.62 17 -7 17 C-6.34 16.34 -5.68 15.68 -5 15 C-4.01 15 -3.02 15 -2 15 C-2 12.03 -2 9.06 -2 6 C-2.928125 6.515625 -3.85625 7.03125 -4.8125 7.5625 C-8 9 -8 9 -11 8 C-11.33 7.34 -11.66 6.68 -12 6 C-13.21558594 6.08378906 -14.43117188 6.16757812 -15.68359375 6.25390625 C-17.26821121 6.35704703 -18.85284765 6.45989661 -20.4375 6.5625 C-21.64116211 6.64661133 -21.64116211 6.64661133 -22.86914062 6.73242188 C-24.91062111 6.8616295 -26.95546369 6.9351273 -29 7 C-30 6 -30 6 -30.0625 3.4375 C-30.041875 2.633125 -30.02125 1.82875 -30 1 C-23 1 -16 1 -9 1 C-7.64447517 0.84476607 -6.29038315 0.67678328 -4.9375 0.5 C-1 0 -1 0 0 0 Z M-9 3 C-9.33 4.32 -9.66 5.64 -10 7 C-9.34 5.68 -8.68 4.36 -8 3 C-8.33 3 -8.66 3 -9 3 Z " fill="#CDCFDF" transform="translate(131,28)"/>
<path d="M0 0 C0.515625 0.37125 1.03125 0.7425 1.5625 1.125 C1.2325 2.445 0.9025 3.765 0.5625 5.125 C1.2225 5.455 1.8825 5.785 2.5625 6.125 C0.2525 7.445 -2.0575 8.765 -4.4375 10.125 C-3.1175 10.455 -1.7975 10.785 -0.4375 11.125 C-0.4375 12.115 -0.4375 13.105 -0.4375 14.125 C-4.0675 14.125 -7.6975 14.125 -11.4375 14.125 C-12.6452558 10.50173261 -11.98061128 9.48353631 -10.4375 6.125 C-10.7675 5.795 -11.0975 5.465 -11.4375 5.125 C-11.7675 6.445 -12.0975 7.765 -12.4375 9.125 C-12.4375 7.805 -12.4375 6.485 -12.4375 5.125 C-13.0975 5.125 -13.7575 5.125 -14.4375 5.125 C-14.7675 6.445 -15.0975 7.765 -15.4375 9.125 C-15.7675 6.815 -16.0975 4.505 -16.4375 2.125 C-15.4475 2.125 -14.4575 2.125 -13.4375 2.125 C-10.85207123 1.57097955 -8.44912137 0.78965725 -5.9375 -0.0625 C-2.4375 -0.875 -2.4375 -0.875 0 0 Z M-6.4375 3.125 C-5.7775 3.785 -5.1175 4.445 -4.4375 5.125 C-4.4375 4.465 -4.4375 3.805 -4.4375 3.125 C-5.0975 3.125 -5.7575 3.125 -6.4375 3.125 Z " fill="#237381" transform="translate(202.4375,29.875)"/>
<path d="M0 0 C0.88042969 0.08378906 1.76085938 0.16757812 2.66796875 0.25390625 C4.41013672 0.40666016 4.41013672 0.40666016 6.1875 0.5625 C7.33605469 0.66691406 8.48460937 0.77132812 9.66796875 0.87890625 C12.71367782 0.98959439 15.05894379 0.70025148 18 0 C24.12667946 -0.53742802 24.12667946 -0.53742802 27.4375 1.5 C29.71029038 5.13646461 29.28281164 7.75782535 29 12 C28.34 12 27.68 12 27 12 C26.71125 11.030625 26.4225 10.06125 26.125 9.0625 C25.35785318 5.89335797 25.35785318 5.89335797 23 5 C20.08391002 4.66638081 20.08391002 4.66638081 17 5 C16.401875 5.515625 15.80375 6.03125 15.1875 6.5625 C12.07745875 8.60624139 9.7853882 8.05459909 6.1953125 7.52734375 C3.40729705 6.85762474 1.29492038 5.70268286 -1 4 C-0.67 2.68 -0.34 1.36 0 0 Z " fill="#0D4D59" transform="translate(48,61)"/>
<path d="M0 0 C6.625 -0.125 6.625 -0.125 10 1 C11.33599921 0.67751743 12.66893378 0.34227417 14 0 C15.99963028 -0.03845443 18.00051633 -0.04544281 20 0 C19.67 0.66 19.34 1.32 19 2 C16.68925595 2.74118205 14.35188447 3.40206327 12 4 C11.236875 4.20625 10.47375 4.4125 9.6875 4.625 C8 5 8 5 6 5 C5.01 5.66 4.02 6.32 3 7 C3.33 8.32 3.66 9.64 4 11 C4.66 9.68 5.32 8.36 6 7 C6.99 7 7.98 7 9 7 C9 8.32 9 9.64 9 11 C9.66 11.33 10.32 11.66 11 12 C10.5 13.9375 10.5 13.9375 9 16 C6.26734566 16.76128 3.87035995 16.86331619 1 17 C-0.96822886 15.03177114 -0.66248381 11.65191291 -1 9 C-1.66 9 -2.32 9 -3 9 C-2.01 6.03 -1.02 3.06 0 0 Z " fill="#237E8D" transform="translate(181,28)"/>
<path d="M0 0 C0.66 0.66 1.32 1.32 2 2 C2.52207031 2.41894531 3.04414062 2.83789062 3.58203125 3.26953125 C5.56149841 5.68524461 5.50611918 7.60402607 5.6875 10.6875 C5.78611328 12.17830078 5.78611328 12.17830078 5.88671875 13.69921875 C5.92410156 14.45847656 5.96148437 15.21773437 6 16 C4.05731159 13.08596738 2.53604696 10.14191424 1 7 C-0.58246707 6.91846067 -2.16616273 6.86056443 -3.75 6.8125 C-4.63171875 6.77769531 -5.5134375 6.74289063 -6.421875 6.70703125 C-9.51517432 7.05854254 -10.8285133 7.78830058 -13 10 C-13.33380814 13.62563814 -13.33380814 13.62563814 -13 17 C-13.99 16.67 -14.98 16.34 -16 16 C-16.7613769 6.33897316 -16.7613769 6.33897316 -14.1875 1.8125 C-9.59981159 -0.79618556 -5.17506747 -0.79167699 0 0 Z " fill="#ADB0C2" transform="translate(71,35)"/>
<path d="M0 0 C6.27 0 12.54 0 19 0 C20.125 7.875 20.125 7.875 19 11 C18.34 11 17.68 11 17 11 C16.67 10.01 16.34 9.02 16 8 C15.01 7.67 14.02 7.34 13 7 C13.33 8.65 13.66 10.3 14 12 C13.01 11.67 12.02 11.34 11 11 C11 7.7 11 4.4 11 1 C10.67 1.66 10.34 2.32 10 3 C8.02 3 6.04 3 4 3 C3.67 3.66 3.34 4.32 3 5 C4.65 5 6.3 5 8 5 C8 5.99 8 6.98 8 8 C6.35 7.67 4.7 7.34 3 7 C3 7.66 3 8.32 3 9 C5.31 9 7.62 9 10 9 C9.67 9.66 9.34 10.32 9 11 C6.36 11 3.72 11 1 11 C0.67 7.37 0.34 3.74 0 0 Z M13 3 C13 3.66 13 4.32 13 5 C13.66 5 14.32 5 15 5 C15 4.34 15 3.68 15 3 C14.34 3 13.68 3 13 3 Z " fill="#C6C8D7" transform="translate(112,49)"/>
<path d="M0 0 C0.99 0.33 1.98 0.66 3 1 C3.94921875 3.06640625 3.94921875 3.06640625 4.6875 5.5625 C4.93886719 6.38878906 5.19023437 7.21507812 5.44921875 8.06640625 C5.63097656 8.70449219 5.81273437 9.34257813 6 10 C3 11 3 11 0.8125 10.0625 C0.214375 9.711875 -0.38375 9.36125 -1 9 C-1.33 9.99 -1.66 10.98 -2 12 C-4.97 11.505 -4.97 11.505 -8 11 C-8.33 10.01 -8.66 9.02 -9 8 C-9.99 7.67 -10.98 7.34 -12 7 C-11.67 8.65 -11.34 10.3 -11 12 C-11.99 11.67 -12.98 11.34 -14 11 C-14 7.7 -14 4.4 -14 1 C-11.69 1 -9.38 1 -7 1 C-6.34 2.98 -5.68 4.96 -5 7 C-4.731875 6.21625 -4.46375 5.4325 -4.1875 4.625 C-3 2 -3 2 0 0 Z M-12 3 C-12 3.66 -12 4.32 -12 5 C-11.34 5 -10.68 5 -10 5 C-10 4.34 -10 3.68 -10 3 C-10.66 3 -11.32 3 -12 3 Z M-6 7 C-6 7.66 -6 8.32 -6 9 C-5.34 8.67 -4.68 8.34 -4 8 C-4.66 7.67 -5.32 7.34 -6 7 Z " fill="#999BAB" transform="translate(171,49)"/>
<path d="M0 0 C1.98 0 3.96 0 6 0 C6.33 0.99 6.66 1.98 7 3 C5.35 3 3.7 3 2 3 C1.67 5.31 1.34 7.62 1 10 C2.32 10.33 3.64 10.66 5 11 C-0.61 11 -6.22 11 -12 11 C-12 7.7 -12 4.4 -12 1 C-8.04 1.33 -4.08 1.66 0 2 C0 1.34 0 0.68 0 0 Z M-7 6 C-7 6.33 -7 6.66 -7 7 C-4.69 7 -2.38 7 0 7 C0 6.67 0 6.34 0 6 C-2.31 6 -4.62 6 -7 6 Z " fill="#C4C8E1" transform="translate(113,33)"/>
<path d="M0 0 C0.99 0 1.98 0 3 0 C4.98712563 2.5759036 5.9241894 4.45669069 6.375 7.6875 C6.25125 8.450625 6.1275 9.21375 6 10 C2.47320901 12.35119399 0.97120515 12.21443452 -3.1875 12.125 C-4.27417969 12.10695313 -5.36085937 12.08890625 -6.48046875 12.0703125 C-7.72763672 12.03550781 -7.72763672 12.03550781 -9 12 C-8.67 8.7 -8.34 5.4 -8 2 C-5.36 2 -2.72 2 0 2 C0 1.34 0 0.68 0 0 Z " fill="#C6CAE6" transform="translate(157,33)"/>
<path d="M0 0 C1.65 0 3.3 0 5 0 C5.33 3.3 5.66 6.6 6 10 C6.99 10 7.98 10 9 10 C9 11.98 9 13.96 9 16 C2.58131488 16.3633218 2.58131488 16.3633218 0.25 14.90625 C-1.65641504 11.99896707 -1.05716816 9.70672584 -0.6875 6.3125 C-0.56761719 5.13300781 -0.44773438 3.95351563 -0.32421875 2.73828125 C-0.16373047 1.38283203 -0.16373047 1.38283203 0 0 Z " fill="#B1B3C7" transform="translate(135,29)"/>
<path d="M0 0 C0.66 0.33 1.32 0.66 2 1 C0.65246764 5.04259708 -1.47417129 5.69465046 -5 8 C-6.70586575 9.62652316 -8.3777546 11.29006566 -10 13 C-10.5775 13.53625 -11.155 14.0725 -11.75 14.625 C-13.25659086 16.09616618 -13.25659086 16.09616618 -14 19 C-14.66 19 -15.32 19 -16 19 C-16 20.65 -16 22.3 -16 24 C-16.99 23.34 -17.98 22.68 -19 22 C-16.87968305 13.51873222 -10.99121126 7.01196423 -4 2 C-1.9140625 0.7734375 -1.9140625 0.7734375 0 0 Z " fill="#386D77" transform="translate(42,11)"/>
<path d="M0 0 C1.93681161 -0.08107583 3.8745934 -0.13922475 5.8125 -0.1875 C6.89144531 -0.22230469 7.97039062 -0.25710937 9.08203125 -0.29296875 C12 0 12 0 13.8359375 1.296875 C15.73495388 4.07530165 15.82601359 6.69425816 16 10 C15.0625 12.4375 15.0625 12.4375 14 14 C13.34 14 12.68 14 12 14 C12 11.36 12 8.72 12 6 C9.87506859 5.97306425 7.75004088 5.95363372 5.625 5.9375 C3.84996094 5.92009766 3.84996094 5.92009766 2.0390625 5.90234375 C-0.91921521 5.78533407 -0.91921521 5.78533407 -3 7 C-3 6.01 -3 5.02 -3 4 C-1.68 3.67 -0.36 3.34 1 3 C0.67 2.01 0.34 1.02 0 0 Z " fill="#AAACC1" transform="translate(78,49)"/>
<path d="M0 0 C0.71994141 -0.00386719 1.43988281 -0.00773438 2.18164062 -0.01171875 C5.36458639 -0.00580799 7.89697862 0.11149287 10.9375 1.125 C12.625 3.6875 12.625 3.6875 13.9375 6.125 C12.27138095 6.167721 10.60367115 6.16563832 8.9375 6.125 C8.6075 5.795 8.2775 5.465 7.9375 5.125 C6.59482587 5.03868126 5.24775678 5.01793527 3.90234375 5.02734375 C3.09345703 5.03056641 2.28457031 5.03378906 1.45117188 5.03710938 C0.1759668 5.04967773 0.1759668 5.04967773 -1.125 5.0625 C-1.97900391 5.06701172 -2.83300781 5.07152344 -3.71289062 5.07617188 C-5.82945663 5.08799627 -7.94598685 5.10593231 -10.0625 5.125 C-9.7325 4.465 -9.4025 3.805 -9.0625 3.125 C-10.0525 2.465 -11.0425 1.805 -12.0625 1.125 C-8.1090749 -0.1756046 -4.11149752 -0.02220431 0 0 Z " fill="#0D5A67" transform="translate(58.0625,8.875)"/>
<path d="M0 0 C2.375 2 2.375 2 4 4 C3.67 4.99 3.34 5.98 3 7 C1.9275 6.896875 0.855 6.79375 -0.25 6.6875 C-4.13975597 6.5867332 -4.13975597 6.5867332 -6.3125 9.5 C-7.1478125 10.7375 -7.1478125 10.7375 -8 12 C-8.66 12 -9.32 12 -10 12 C-10.48372093 4.74418605 -10.48372093 4.74418605 -8.375 1.5 C-5.27859404 -0.45562482 -3.60146865 -0.60024477 0 0 Z " fill="#195A66" transform="translate(88,24)"/>
<path d="M0 0 C1.670625 0.061875 1.670625 0.061875 3.375 0.125 C5.45966413 3.51257921 5.80405061 6.17773438 5.375 10.125 C1.9397952 12.41513653 0.389669 12.30342973 -3.625 12.125 C-5.71401197 8.73035554 -5.96861606 6.07658471 -5.625 2.125 C-3.625 0.125 -3.625 0.125 0 0 Z M-0.625 2.125 C-0.955 4.105 -1.285 6.085 -1.625 8.125 C1.42770463 8.28311388 1.42770463 8.28311388 4.375 7.125 C4.375 6.465 4.375 5.805 4.375 5.125 C3.385 4.795 2.395 4.465 1.375 4.125 C0.715 3.465 0.055 2.805 -0.625 2.125 Z " fill="#9496A3" transform="translate(106.625,48.875)"/>
<path d="M0 0 C3.12482562 -0.08687496 6.24934246 -0.14034568 9.375 -0.1875 C10.70917969 -0.22520508 10.70917969 -0.22520508 12.0703125 -0.26367188 C13.34648438 -0.27817383 13.34648438 -0.27817383 14.6484375 -0.29296875 C15.82672119 -0.31653442 15.82672119 -0.31653442 17.02880859 -0.34057617 C17.67930176 -0.22818604 18.32979492 -0.1157959 19 0 C19.66 0.99 20.32 1.98 21 3 C18.36 2.67 15.72 2.34 13 2 C12.67 2.99 12.34 3.98 12 5 C10.18818595 5.19401633 8.37551468 5.38004375 6.5625 5.5625 C5.04849609 5.71912109 5.04849609 5.71912109 3.50390625 5.87890625 C2.67761719 5.91886719 1.85132812 5.95882812 1 6 C0 5 0 5 -0.0625 2.4375 C-0.041875 1.633125 -0.02125 0.82875 0 0 Z " fill="#ACAFC4" transform="translate(101,29)"/>
<path d="M0 0 C1.32 0.33 2.64 0.66 4 1 C4.99 1 5.98 1 7 1 C7.99 1 8.98 1 10 1 C9.814375 1.9075 9.62875 2.815 9.4375 3.75 C9.04265379 6.68314324 9.05308428 8.2644657 10 11 C9.01 11.33 8.02 11.66 7 12 C6.01 11.01 5.02 10.02 4 9 C3.67 9.66 3.34 10.32 3 11 C2.34 11 1.68 11 1 11 C0.67 7.37 0.34 3.74 0 0 Z " fill="#9EA0AE" transform="translate(181,49)"/>
<path d="M0 0 C0.66 1.32 1.32 2.64 2 4 C1.01 4.99 0.02 5.98 -1 7 C-1.33 6.34 -1.66 5.68 -2 5 C-2.86625 5.495 -2.86625 5.495 -3.75 6 C-6 7 -6 7 -10 7 C-10.6875 5.1875 -10.6875 5.1875 -11 3 C-8.69211729 -1.30804773 -4.25159903 -0.20909503 0 0 Z " fill="#0A5F6D" transform="translate(176,28)"/>
<path d="M0 0 C2.64 0 5.28 0 8 0 C8.33 0.66 8.66 1.32 9 2 C7.02 2 5.04 2 3 2 C2.67 2.66 2.34 3.32 2 4 C3.65 4 5.3 4 7 4 C7 4.99 7 5.98 7 7 C5.35 6.67 3.7 6.34 2 6 C2 6.66 2 7.32 2 8 C4.31 8 6.62 8 9 8 C8.67 8.66 8.34 9.32 8 10 C5.36 10 2.72 10 0 10 C0 6.7 0 3.4 0 0 Z " fill="#BABCCD" transform="translate(147,50)"/>
<path d="M0 0 C1.98 0.66 3.96 1.32 6 2 C6 2.66 6 3.32 6 4 C7.32 4.33 8.64 4.66 10 5 C10 5.99 10 6.98 10 8 C6.37 8 2.74 8 -1 8 C-2.2077558 4.37673261 -1.54311128 3.35853631 0 0 Z " fill="#096677" transform="translate(192,36)"/>
<path d="M0 0 C5.61 0 11.22 0 17 0 C17 0.33 17 0.66 17 1 C15.9275 1.144375 14.855 1.28875 13.75 1.4375 C9.93354093 1.94865662 9.93354093 1.94865662 6 3 C6 5.97 6 8.94 6 12 C4.68 11.67 3.36 11.34 2 11 C2.33 7.7 2.66 4.4 3 1 C2.01 0.67 1.02 0.34 0 0 Z " fill="#FFFFFF" transform="translate(189,49)"/>
<path d="M0 0 C2.97 0.495 2.97 0.495 6 1 C6 1.99 6 2.98 6 4 C6.66 4 7.32 4 8 4 C8 4.66 8 5.32 8 6 C8.598125 5.79375 9.19625 5.5875 9.8125 5.375 C12 5 12 5 15 7 C9.05103092 8.33548285 6.2484187 7.67566443 1 5 C0.34 4.67 -0.32 4.34 -1 4 C-0.67 2.68 -0.34 1.36 0 0 Z " fill="#0A6D7C" transform="translate(48,61)"/>
<path d="M0 0 C3.875 1.875 3.875 1.875 5 3 C5.15135944 4.7872057 5.22175778 6.58161876 5.25 8.375 C5.27578125 9.35210937 5.3015625 10.32921875 5.328125 11.3359375 C5 14 5 14 3.609375 15.8515625 C2 17 2 17 0 17 C0 16.01 0 15.02 0 14 C0.66 14 1.32 14 2 14 C2 11.69 2 9.38 2 7 C1.01 6.67 0.02 6.34 -1 6 C-0.01 5.34 0.98 4.68 2 4 C1.34 3.67 0.68 3.34 0 3 C0 2.01 0 1.02 0 0 Z " fill="#3F7983" transform="translate(69,10)"/>
<path d="M0 0 C1 3 1 3 1 5 C3.475 5.99 3.475 5.99 6 7 C6 7.33 6 7.66 6 8 C4.39602723 8.16852247 2.7918131 8.33474886 1.1875 8.5 C0.29417969 8.5928125 -0.59914062 8.685625 -1.51953125 8.78125 C-4 9 -4 9 -7 9 C-7.33 8.01 -7.66 7.02 -8 6 C-5.68055212 2.52082818 -3.73630036 1.70570234 0 0 Z " fill="#53939E" transform="translate(173,33)"/>
<path d="M0 0 C0.99 0.33 1.98 0.66 3 1 C3.94921875 3.06640625 3.94921875 3.06640625 4.6875 5.5625 C5.06455078 6.80193359 5.06455078 6.80193359 5.44921875 8.06640625 C5.63097656 8.70449219 5.81273437 9.34257813 6 10 C5.01 10.33 4.02 10.66 3 11 C0.3125 9.0625 0.3125 9.0625 -2 7 C-1.67 6.67 -1.34 6.34 -1 6 C-1.66 5.34 -2.32 4.68 -3 4 C-3 3.34 -3 2.68 -3 2 C-2.01 1.34 -1.02 0.68 0 0 Z " fill="#A6A7B6" transform="translate(171,49)"/>
<path d="M0 0 C0.33 0.66 0.66 1.32 1 2 C-0.216875 2.04125 -1.43375 2.0825 -2.6875 2.125 C-6.03393185 2.54033729 -7.71021098 3.19516848 -9.9375 5.75 C-11.81698121 8.71160675 -12.69585186 10.55298777 -13 14 C-13.33 14 -13.66 14 -14 14 C-14.46444522 9.2626588 -14.66529126 6.05158942 -12.0625 1.9375 C-7.94841058 -0.66529126 -4.7373412 -0.46444522 0 0 Z " fill="#9092A2" transform="translate(69,35)"/>
<path d="M0 0 C-0.33 1.32 -0.66 2.64 -1 4 C-0.34 4.33 0.32 4.66 1 5 C-0.98 5.99 -0.98 5.99 -3 7 C-3.33 5.68 -3.66 4.36 -4 3 C-6.31 2.34 -8.62 1.68 -11 1 C-10.67 0.34 -10.34 -0.32 -10 -1 C-5.95206114 -2.07945036 -3.55979782 -2.32756011 0 0 Z " fill="#19616E" transform="translate(204,31)"/>
<path d="M0 0 C6.625 -0.125 6.625 -0.125 10 1 C11.33599921 0.67751743 12.66893378 0.34227417 14 0 C15.99963028 -0.03845443 18.00051633 -0.04544281 20 0 C19.67 0.66 19.34 1.32 19 2 C16.68925595 2.74118205 14.35188447 3.40206327 12 4 C11.236875 4.20625 10.47375 4.4125 9.6875 4.625 C8 5 8 5 6 5 C5.01 5.495 5.01 5.495 4 6 C4 5.34 4 4.68 4 4 C2.68 3.34 1.36 2.68 0 2 C0 1.34 0 0.68 0 0 Z " fill="#55858D" transform="translate(181,28)"/>
<path d="M0 0 C1.75 1.25 1.75 1.25 2.75 3.25 C2.88415472 5.9223621 2.79318541 8.57250488 2.75 11.25 C2.09 11.25 1.43 11.25 0.75 11.25 C0.564375 10.30125 0.37875 9.3525 0.1875 8.375 C-0.98400805 4.86628301 -0.98400805 4.86628301 -4.875 3.875 C-5.98875 3.66875 -7.1025 3.4625 -8.25 3.25 C-7.25 1.25 -7.25 1.25 -4.9375 0 C-2.25 -0.75 -2.25 -0.75 0 0 Z " fill="#276874" transform="translate(74.25,61.75)"/>
<path d="M0 0 C1.17046875 0.10183594 2.3409375 0.20367188 3.546875 0.30859375 C4.43890625 0.39238281 5.3309375 0.47617187 6.25 0.5625 C7.25 3.5625 7.25 3.5625 7.25 6.5625 C6.59 6.5625 5.93 6.5625 5.25 6.5625 C5.25 5.9025 5.25 5.2425 5.25 4.5625 C3.93 4.8925 2.61 5.2225 1.25 5.5625 C1.25 4.9025 1.25 4.2425 1.25 3.5625 C-1.72 3.0675 -1.72 3.0675 -4.75 2.5625 C-5.74 4.0475 -5.74 4.0475 -6.75 5.5625 C-7.08 4.5725 -7.41 3.5825 -7.75 2.5625 C-8.74 1.9025 -9.73 1.2425 -10.75 0.5625 C-7.06599416 -0.66854155 -3.83525024 -0.34517252 0 0 Z " fill="#9D9FB1" transform="translate(154.75,28.4375)"/>
<path d="M0 0 C2.97 0.495 2.97 0.495 6 1 C6 1.66 6 2.32 6 3 C11.28 3 16.56 3 22 3 C22.33 3.66 22.66 4.32 23 5 C22.09378906 4.98839844 21.18757813 4.97679687 20.25390625 4.96484375 C13.40496536 4.91411085 6.786092 5.06398731 0 6 C0.99 4.68 1.98 3.36 3 2 C2.01 1.67 1.02 1.34 0 1 C0 0.67 0 0.34 0 0 Z " fill="#0C6F7F" transform="translate(44,10)"/>
<path d="M0 0 C2 2 2 2 2.125 5.625 C2.08375 6.73875 2.0425 7.8525 2 9 C-0.52475462 10.26237731 -2.31200466 10.09856404 -5.125 10.0625 C-6.03507813 10.05347656 -6.94515625 10.04445313 -7.8828125 10.03515625 C-8.58148438 10.02355469 -9.28015625 10.01195312 -10 10 C-10 9.67 -10 9.34 -10 9 C-7.03 9 -4.06 9 -1 9 C-1 8.01 -1 7.02 -1 6 C-2.32 6 -3.64 6 -5 6 C-4.67 5.01 -4.34 4.02 -4 3 C-3.01 3 -2.02 3 -1 3 C-0.67 2.01 -0.34 1.02 0 0 Z " fill="#D8DBEC" transform="translate(158,35)"/>
<path d="M0 0 C0.99 1.32 1.98 2.64 3 4 C3.66 3.34 4.32 2.68 5 2 C5.99 2.99 6.98 3.98 8 5 C6.875 6.5 6.875 6.5 5 8 C1.9375 8.375 1.9375 8.375 -1 8 C-1.66 7.01 -2.32 6.02 -3 5 C-2.67 4.34 -2.34 3.68 -2 3 C-1.34 3 -0.68 3 0 3 C0 2.01 0 1.02 0 0 Z " fill="#A5A6B1" transform="translate(104,53)"/>
<path d="M0 0 C0.89093449 3.64473199 1.23666047 6.42742531 0 10 C-0.66 10 -1.32 10 -2 10 C-2.33 7.69 -2.66 5.38 -3 3 C-3.99 2.67 -4.98 2.34 -6 2 C-6.33 2.66 -6.66 3.32 -7 4 C-7 2.68 -7 1.36 -7 0 C-2.25 -1.125 -2.25 -1.125 0 0 Z " fill="#A2A5B4" transform="translate(131,50)"/>
<path d="M0 0 C1.93681161 -0.08107583 3.8745934 -0.13922475 5.8125 -0.1875 C6.89144531 -0.22230469 7.97039062 -0.25710937 9.08203125 -0.29296875 C12 0 12 0 13.82421875 1.32421875 C15 3 15 3 16 6 C15.34 6 14.68 6 14 6 C14 5.34 14 4.68 14 4 C13.34 4 12.68 4 12 4 C12 3.34 12 2.68 12 2 C10.9275 2.350625 9.855 2.70125 8.75 3.0625 C3.66666667 4.33333333 3.66666667 4.33333333 1 3 C0.67 2.01 0.34 1.02 0 0 Z " fill="#9698A6" transform="translate(78,49)"/>
<path d="M0 0 C0.60328125 0.05800781 1.2065625 0.11601563 1.828125 0.17578125 C2.158125 0.83578125 2.488125 1.49578125 2.828125 2.17578125 C2.12945312 2.29695313 1.43078125 2.418125 0.7109375 2.54296875 C-0.65417969 2.79433594 -0.65417969 2.79433594 -2.046875 3.05078125 C-2.95179687 3.21320312 -3.85671875 3.375625 -4.7890625 3.54296875 C-7.33693488 4.00622828 -7.33693488 4.00622828 -9.171875 6.17578125 C-9.33864782 9.75922101 -9.33864782 9.75922101 -9.171875 13.17578125 C-10.161875 12.84578125 -11.151875 12.51578125 -12.171875 12.17578125 C-11.87807976 8.42989197 -11.38848212 5.59997019 -9.671875 2.23828125 C-6.3669581 -0.48827519 -4.15787063 -0.2347185 0 0 Z " fill="#BBBFD6" transform="translate(67.171875,38.82421875)"/>
<path d="M0 0 C0.99 0.33 1.98 0.66 3 1 C3 1.99 3 2.98 3 4 C2.34 4 1.68 4 1 4 C1.66 6.97 2.32 9.94 3 13 C2.01 13.33 1.02 13.66 0 14 C-0.33 11.69 -0.66 9.38 -1 7 C-1.66 7 -2.32 7 -3 7 C-1.125 2.25 -1.125 2.25 0 0 Z " fill="#056374" transform="translate(181,30)"/>
<path d="M0 0 C1.32 0 2.64 0 4 0 C4 2.97 4 5.94 4 9 C3.01 9.495 3.01 9.495 2 10 C0.4375 8.9375 0.4375 8.9375 -1 7 C-0.6875 3.3125 -0.6875 3.3125 0 0 Z " fill="#CED1E7" transform="translate(135,35)"/>
<path d="M0 0 C0.99 0 1.98 0 3 0 C3 2.97 3 5.94 3 9 C1.68 9 0.36 9 -1 9 C-1.09765625 2.84765625 -1.09765625 2.84765625 -1 1 C-0.67 0.67 -0.34 0.34 0 0 Z " fill="#BFC3DB" transform="translate(145,35)"/>
<path d="M0 0 C1.23556641 0.01740234 1.23556641 0.01740234 2.49609375 0.03515625 C3.32238281 0.04417969 4.14867187 0.05320313 5 0.0625 C5.63808594 0.07410156 6.27617187 0.08570313 6.93359375 0.09765625 C6.93359375 0.75765625 6.93359375 1.41765625 6.93359375 2.09765625 C5.94359375 2.09765625 4.95359375 2.09765625 3.93359375 2.09765625 C3.60359375 4.73765625 3.27359375 7.37765625 2.93359375 10.09765625 C2.27359375 10.09765625 1.61359375 10.09765625 0.93359375 10.09765625 C0.93359375 7.45765625 0.93359375 4.81765625 0.93359375 2.09765625 C-0.38640625 1.76765625 -1.70640625 1.43765625 -3.06640625 1.09765625 C-2.06640625 0.09765625 -2.06640625 0.09765625 0 0 Z " fill="#B9BBCE" transform="translate(139.06640625,49.90234375)"/>
<path d="M0 0 C1.65 0.33 3.3 0.66 5 1 C3.7508258 4.45925163 2.32472205 7.14693203 0 10 C-1.32 9.34 -2.64 8.68 -4 8 C-2.625 6.5 -2.625 6.5 -1 5 C-0.34 5 0.32 5 1 5 C0.67 3.35 0.34 1.7 0 0 Z " fill="#3A7C88" transform="translate(176,29)"/>
<path d="M0 0 C2.3125 0.5 2.3125 0.5 5 2 C6.34219295 4.5690412 7.20425705 7.21813439 8 10 C7.01 10.33 6.02 10.66 5 11 C3 9 3 9 2.875 6.375 C2.91625 5.59125 2.9575 4.8075 3 4 C2.34 4 1.68 4 1 4 C0.67 2.68 0.34 1.36 0 0 Z " fill="#AFB1BF" transform="translate(207,49)"/>
<path d="M0 0 C2.99324263 1.0975223 3.84610901 1.67682892 5.25 4.625 C5.4975 5.40875 5.745 6.1925 6 7 C6.99 7 7.98 7 9 7 C8.67 7.99 8.34 8.98 8 10 C8.66 10.33 9.32 10.66 10 11 C8.68 11.33 7.36 11.66 6 12 C3.90250005 9.64031256 3.03094296 8.45383006 2.8125 5.25 C2.9053125 4.13625 2.9053125 4.13625 3 3 C2.34 3 1.68 3 1 3 C0.67 2.01 0.34 1.02 0 0 Z " fill="#C2C5DC" transform="translate(70,41)"/>
<path d="M0 0 C2.64 0 5.28 0 8 0 C8 1.32 8 2.64 8 4 C5.36 4.33 2.72 4.66 0 5 C0 3.35 0 1.7 0 0 Z " fill="#A4A7BB" transform="translate(122,29)"/>
<path d="M0 0 C3.12482562 -0.08687496 6.24934246 -0.14034568 9.375 -0.1875 C10.70917969 -0.22520508 10.70917969 -0.22520508 12.0703125 -0.26367188 C13.34648438 -0.27817383 13.34648438 -0.27817383 14.6484375 -0.29296875 C15.82672119 -0.31653442 15.82672119 -0.31653442 17.02880859 -0.34057617 C17.67930176 -0.22818604 18.32979492 -0.1157959 19 0 C19.66 0.99 20.32 1.98 21 3 C18.36 2.67 15.72 2.34 13 2 C12.67 2.66 12.34 3.32 12 4 C12 3.01 12 2.02 12 1 C8.04 1 4.08 1 0 1 C0 0.67 0 0.34 0 0 Z " fill="#9698A6" transform="translate(101,29)"/>
<path d="M0 0 C-0.3125 1.9375 -0.3125 1.9375 -1 4 C-1.99 4.33 -2.98 4.66 -4 5 C-4.33 5.66 -4.66 6.32 -5 7 C-5.66 7 -6.32 7 -7 7 C-7.6875 5.1875 -7.6875 5.1875 -8 3 C-5.85915306 -0.33020635 -3.75910189 -0.30479204 0 0 Z " fill="#035968" transform="translate(213,30)"/>
<path d="M0 0 C0.99 0.33 1.98 0.66 3 1 C3 2.98 3 4.96 3 7 C0.3333581 8.33332095 -1.16680303 7.67102033 -4 7 C-4 5.68 -4 4.36 -4 3 C-3.34 3 -2.68 3 -2 3 C-1.67 3.33 -1.34 3.66 -1 4 C-0.67 2.68 -0.34 1.36 0 0 Z " fill="#B5B7C6" transform="translate(167,53)"/>
<path d="M0 0 C0.99 0.495 0.99 0.495 2 1 C2.33333333 2.33333333 2.66666667 3.66666667 3 5 C3.66 5.33 4.32 5.66 5 6 C5 7.65 5 9.3 5 11 C3.35 11 1.7 11 0 11 C0 10.34 0 9.68 0 9 C0.66 9 1.32 9 2 9 C1.67 8.443125 1.34 7.88625 1 7.3125 C-0.1309601 4.69715478 -0.15662974 2.8193354 0 0 Z " fill="#508B96" transform="translate(182,34)"/>
<path d="M0 0 C0.99 0 1.98 0 3 0 C3.66 1.98 4.32 3.96 5 6 C4.01 6.66 3.02 7.32 2 8 C0.4375 6.8125 0.4375 6.8125 -1 5 C-0.6875 2.3125 -0.6875 2.3125 0 0 Z " fill="#B7B9C4" transform="translate(186,53)"/>
<path d="M0 0 C1.65 0.33 3.3 0.66 5 1 C5 2.32 5 3.64 5 5 C4.01 5.495 4.01 5.495 3 6 C0.875 5.0625 0.875 5.0625 -1 4 C-0.67 2.68 -0.34 1.36 0 0 Z " fill="#185F6B" transform="translate(48,61)"/>
<path d="M0 0 C3.465 1.485 3.465 1.485 7 3 C6.01 3.33 5.02 3.66 4 4 C3.26676204 6.01508358 3.26676204 6.01508358 3 8 C3 6.68 3 5.36 3 4 C2.34 4 1.68 4 1 4 C0.67 5.32 0.34 6.64 0 8 C-0.38063221 5.6739143 -0.71269945 3.33944736 -1 1 C-0.67 0.67 -0.34 0.34 0 0 Z " fill="#0A6878" transform="translate(187,31)"/>
<path d="M0 0 C0.33 0.66 0.66 1.32 1 2 C-0.3921875 2.433125 -0.3921875 2.433125 -1.8125 2.875 C-5.09791667 3.8875 -5.09791667 3.8875 -8 6 C-8 4.68 -8 3.36 -8 2 C-4.77208445 -0.1519437 -3.71599191 -0.20086443 0 0 Z " fill="#006C7D" transform="translate(88,28)"/>
<path d="M0 0 C3.36591866 1.44253657 5.51047079 3.33264727 8 6 C6.02 6.99 6.02 6.99 4 8 C0 3.375 0 3.375 0 0 Z " fill="#668A91" transform="translate(42,55)"/>
<path d="M0 0 C0.66 0.33 1.32 0.66 2 1 C1.67 1.99 1.34 2.98 1 4 C0.01 4 -0.98 4 -2 4 C-1.67 5.65 -1.34 7.3 -1 9 C-1.99 8.67 -2.98 8.34 -4 8 C-4 6.02 -4 4.04 -4 2 C-2.68 2 -1.36 2 0 2 C0 1.34 0 0.68 0 0 Z " fill="#C5C8D7" transform="translate(161,52)"/>
<path d="M0 0 C1.6875 2.5 1.6875 2.5 3 5 C-0.71599191 5.20086443 -1.77208445 5.1519437 -5 3 C-5 2.34 -5 1.68 -5 1 C-3 0 -3 0 0 0 Z " fill="#035A68" transform="translate(69,10)"/>
<path d="M0 0 C0.66 0 1.32 0 2 0 C2 3.3 2 6.6 2 10 C1.01 10 0.02 10 -1 10 C-0.67 6.7 -0.34 3.4 0 0 Z " fill="#ABAEBE" transform="translate(192,50)"/>
<path d="M0 0 C2.475 0.495 2.475 0.495 5 1 C6 4 6 4 5 7 C5 6.34 5 5.68 5 5 C3.68 4.67 2.36 4.34 1 4 C0.67 2.68 0.34 1.36 0 0 Z " fill="#AEAFBA" transform="translate(106,49)"/>
<path d="M0 0 C-1.305239 2.61047801 -2.35826574 2.68066423 -5.0625 3.625 C-6.16271484 4.01558594 -6.16271484 4.01558594 -7.28515625 4.4140625 C-7.85105469 4.60742188 -8.41695312 4.80078125 -9 5 C-9.66 4.34 -10.32 3.68 -11 3 C-8.21756596 -1.17365106 -4.53441502 -0.22300402 0 0 Z " fill="#517F87" transform="translate(176,28)"/>
<path d="M0 0 C2.4375 1 2.4375 1 5 3 C5.76381481 5.72714162 5.85942648 8.14167178 6 11 C5.34 11 4.68 11 4 11 C3.52014033 9.72942818 3.0411407 8.45853152 2.5625 7.1875 C2.16224609 6.12595703 2.16224609 6.12595703 1.75390625 5.04296875 C1.13774814 3.37327604 0.56280765 1.68842296 0 0 Z " fill="#5E7C83" transform="translate(89,24)"/>
<path d="M0 0 C1.32 0.33 2.64 0.66 4 1 C3.67 1.99 3.34 2.98 3 4 C-0.0625 5.1875 -0.0625 5.1875 -3 6 C-2.505 5.566875 -2.01 5.13375 -1.5 4.6875 C0.33218192 3.00259517 0.33218192 3.00259517 0 0 Z M-4 6 C-3.67 6.66 -3.34 7.32 -3 8 C-4.32 8.33 -5.64 8.66 -7 9 C-6.01 8.01 -5.02 7.02 -4 6 Z " fill="#005B69" transform="translate(43,11)"/>
<path d="M0 0 C2.31 0 4.62 0 7 0 C5.60804085 2.7839183 3.84424221 2.97898997 1 4 C0.67 2.68 0.34 1.36 0 0 Z M-1 4 C-0.34 4.33 0.32 4.66 1 5 C-0.32 5.33 -1.64 5.66 -3 6 C-2.34 5.34 -1.68 4.68 -1 4 Z " fill="#185661" transform="translate(64,61)"/>
<path d="M0 0 C1.65 0 3.3 0 5 0 C5 1.32 5 2.64 5 4 C3.35 4 1.7 4 0 4 C0 2.68 0 1.36 0 0 Z " fill="#9FA2B5" transform="translate(135,29)"/>
<path d="M0 0 C3.3 0.33 6.6 0.66 10 1 C7 3 7 3 5 3 C4.67 3.66 4.34 4.32 4 5 C4 4.34 4 3.68 4 3 C2.68 3 1.36 3 0 3 C0 2.01 0 1.02 0 0 Z " fill="#AAADC2" transform="translate(149,30)"/>
<path d="M0 0 C1.4606285 2.64738916 2 3.89448334 2 7 C1.01 7.33 0.02 7.66 -1 8 C-1.66 7.01 -2.32 6.02 -3 5 C-2.67 4.34 -2.34 3.68 -2 3 C-1.34 3 -0.68 3 0 3 C0 2.01 0 1.02 0 0 Z " fill="#B9BBC6" transform="translate(104,53)"/>
<path d="M0 0 C0.99 0.99 1.98 1.98 3 3 C2.01 4.485 2.01 4.485 1 6 C0.61500109 7.65549531 0.27206865 9.3222433 0 11 C-0.33 11 -0.66 11 -1 11 C-1.0270043 9.54176788 -1.04639787 8.08339325 -1.0625 6.625 C-1.07410156 5.81289063 -1.08570313 5.00078125 -1.09765625 4.1640625 C-1 2 -1 2 0 0 Z " fill="#888A96" transform="translate(56,38)"/>
<path d="M0 0 C0.99 0.33 1.98 0.66 3 1 C3.1875 3.875 3.1875 3.875 3 7 C2.01 7.66 1.02 8.32 0 9 C0 6.03 0 3.06 0 0 Z " fill="#ACAEBD" transform="translate(160,36)"/>
<path d="M0 0 C1.19882813 0.15275391 1.19882813 0.15275391 2.421875 0.30859375 C3.02515625 0.39238281 3.6284375 0.47617187 4.25 0.5625 C4.25 0.8925 4.25 1.2225 4.25 1.5625 C1.61 1.5625 -1.03 1.5625 -3.75 1.5625 C-4.08 2.8825 -4.41 4.2025 -4.75 5.5625 C-5.08 4.5725 -5.41 3.5825 -5.75 2.5625 C-6.74 1.9025 -7.73 1.2425 -8.75 0.5625 C-5.62819599 -0.40411363 -3.22916205 -0.42738909 0 0 Z " fill="#9597A2" transform="translate(152.75,28.4375)"/>
<path d="M0 0 C1.32 0.33 2.64 0.66 4 1 C4.33 3.97 4.66 6.94 5 10 C2.82145293 6.7321794 1.50239966 3.61941735 0 0 Z " fill="#9699AB" transform="translate(72,41)"/>
<path d="M0 0 C1.32 0 2.64 0 4 0 C3.67 1.32 3.34 2.64 3 4 C2.67 3.67 2.34 3.34 2 3 C1.67 4.32 1.34 5.64 1 7 C0.34 6.67 -0.32 6.34 -1 6 C-0.67 4.02 -0.34 2.04 0 0 Z " fill="#C4C7DD" transform="translate(135,35)"/>
<path d="M0 0 C2 1 2 1 2 1 Z " fill="#FFFFFF" transform="translate(155,60)"/>
<path d="M0 0 C2 1 2 1 2 1 Z " fill="#FFFFFF" transform="translate(131,60)"/>
<path d="M0 0 C2 1 2 1 2 1 Z " fill="#FFFFFF" transform="translate(121,60)"/>
<path d="" fill="#FFFFFF" transform="translate(0,0)"/>
<path d="" fill="#FFFFFF" transform="translate(0,0)"/>
<path d="" fill="#FFFFFF" transform="translate(0,0)"/>
<path d="" fill="#FFFFFF" transform="translate(0,0)"/>
<path d="" fill="#FFFFFF" transform="translate(0,0)"/>
<path d="" fill="#FFFFFF" transform="translate(0,0)"/>
<path d="" fill="#FFFFFF" transform="translate(0,0)"/>
<path d="" fill="#FFFFFF" transform="translate(0,0)"/>
<path d="" fill="#FFFFFF" transform="translate(0,0)"/>
<path d="" fill="#FFFFFF" transform="translate(0,0)"/>
<path d="" fill="#FFFFFF" transform="translate(0,0)"/>
<path d="" fill="#FFFFFF" transform="translate(0,0)"/>
<path d="" fill="#FFFFFF" transform="translate(0,0)"/>
<path d="" fill="#FFFFFF" transform="translate(0,0)"/>
<path d="" fill="#FFFFFF" transform="translate(0,0)"/>
<path d="" fill="#FFFFFF" transform="translate(0,0)"/>
<path d="" fill="#FFFFFF" transform="translate(0,0)"/>
<path d="" fill="#FFFFFF" transform="translate(0,0)"/>
<path d="" fill="#FFFFFF" transform="translate(0,0)"/>
<path d="" fill="#FFFFFF" transform="translate(0,0)"/>
<path d="" fill="#FFFFFF" transform="translate(0,0)"/>
<path d="" fill="#FFFFFF" transform="translate(0,0)"/>
<path d="" fill="#FFFFFF" transform="translate(0,0)"/>
<path d="" fill="#FFFFFF" transform="translate(0,0)"/>
<path d="" fill="#FFFFFF" transform="translate(0,0)"/>
<path d="" fill="#FFFFFF" transform="translate(0,0)"/>
<path d="" fill="#FFFFFF" transform="translate(0,0)"/>
<path d="" fill="#FFFFFF" transform="translate(0,0)"/>
<path d="" fill="#FFFFFF" transform="translate(0,0)"/>
<path d="" fill="#FFFFFF" transform="translate(0,0)"/>
<path d="" fill="#FFFFFF" transform="translate(0,0)"/>
<path d="" fill="#FFFFFF" transform="translate(0,0)"/>
<path d="" fill="#FFFFFF" transform="translate(0,0)"/>
<path d="" fill="#FFFFFF" transform="translate(0,0)"/>
<path d="" fill="#FFFFFF" transform="translate(0,0)"/>
<path d="" fill="#FFFFFF" transform="translate(0,0)"/>
<path d="" fill="#FFFFFF" transform="translate(0,0)"/>
<path d="" fill="#FFFFFF" transform="translate(0,0)"/>
<path d="" fill="#FFFFFF" transform="translate(0,0)"/>
<path d="" fill="#FFFFFF" transform="translate(0,0)"/>
</svg>
