<?xml version="1.0" encoding="UTF-8"?>
<svg version="1.1" xmlns="http://www.w3.org/2000/svg" width="476" height="176">
<path d="M0 0 C0.94601074 -0.01023193 1.89202148 -0.02046387 2.86669922 -0.03100586 C11.07669094 0.07117245 20.60703624 1.16894253 27.25 6.4375 C27.25 7.0975 27.25 7.7575 27.25 8.4375 C27.91 8.4375 28.57 8.4375 29.25 8.4375 C32.57719549 15.09189098 33.26200098 19.92526131 31.1875 27.125 C28.79613762 31.21345827 26.57263691 33.48664701 22.25 35.4375 C16.56015544 36.85532772 11.79385884 36.54167735 6.2265625 34.93359375 C-2.00021173 32.86877097 -10.12287963 35.20232194 -17.75 38.4375 C-22.22542662 41.22277258 -25.81792301 44.03938451 -28.75 48.4375 C-29.41 48.4375 -30.07 48.4375 -30.75 48.4375 C-31.41821628 50.10354598 -32.08452455 51.77035734 -32.75 53.4375 C-33.09160156 54.28828125 -33.43320313 55.1390625 -33.78515625 56.015625 C-37.91210139 66.74882072 -38.58200437 74.41131119 -34.75 85.4375 C-30.02272044 95.85007923 -23.27931197 102.71205339 -12.7109375 107.328125 C-3.94567717 109.93905361 5.33633445 108.99429487 13.84765625 106.125 C18.81783229 104.70264068 23.64816908 104.42816904 28.515625 106.31640625 C33.25620771 108.97639988 36.57354749 112.1985859 38.25 117.4375 C39.04431193 122.10408257 38.77758809 126.02777087 36.5625 130.25 C31.10388877 137.77403169 23.25066376 140.89226111 14.25 142.4375 C-8.94530823 144.28695979 -28.99570583 141.35919905 -47.5625 126.625 C-60.16887053 114.87815473 -70.8730001 97.92416298 -71.87231445 80.27758789 C-72.46874291 61.82434373 -69.54005643 46.39166604 -59.75 30.4375 C-59.09 30.4375 -58.43 30.4375 -57.75 30.4375 C-57.49476562 29.86773437 -57.23953125 29.29796875 -56.9765625 28.7109375 C-49.71076291 15.24375482 -33.94307929 6.42854999 -19.875 2 C-13.24469085 0.40100652 -6.80976089 0.05642843 0 0 Z " fill="#017283" transform="translate(115.75,17.5625)"/>
<path d="M0 0 C4.51544833 3.31858251 7.36716354 7.66340531 8.5078125 13.12109375 C8.79986699 15.03770136 9.09153264 16.95436826 9.3828125 18.87109375 C9.83215189 21.65331008 9.83215189 21.65331008 11.9453125 24.4296875 C14.03478186 25.04852801 14.03478186 25.04852801 16.3828125 25.1796875 C17.16527344 25.25703125 17.94773438 25.334375 18.75390625 25.4140625 C21.12584482 25.5489455 21.12584482 25.5489455 23.9453125 24.4296875 C29.20297195 24.03288301 32.50634092 24.53470604 36.9453125 27.4296875 C40.896615 31.32773794 42.79047756 34.57166825 43.2578125 40.1796875 C43.17393125 44.74282743 41.91332523 47.96115191 38.9453125 51.4296875 C34.76517383 55.10084555 30.57054729 56.02982703 25.0859375 55.75 C20.76474309 55.10339792 17.95940595 53.3841284 14.8203125 50.4296875 C12.5171109 46.74456493 11.32702489 43.00149757 10.0703125 38.85546875 C9.14570827 36.32566274 9.14570827 36.32566274 7 35.08203125 C3.1868468 33.87139136 -0.17789413 35.09092643 -3.8046875 36.4921875 C-9.73065737 38.20160189 -15.593175 38.4165791 -21.3046875 35.8671875 C-26.48262018 32.90088194 -29.95784202 28.82280492 -32.4296875 23.4296875 C-33.79042831 16.89813159 -33.21623008 12.33123364 -30.0546875 6.4296875 C-22.86556247 -4.40999011 -11.04603565 -6.81236345 0 0 Z " fill="#CBCEEA" transform="translate(143.0546875,73.5703125)"/>
<path d="M0 0 C2.2853945 1.20618043 4.24848196 2.55663345 6.25 4.1875 C6.8275 3.548125 7.405 2.90875 8 2.25 C11.7370271 -1.17560817 15.19010801 -1.10082881 20.21875 -1.03515625 C23.36262659 -0.69053901 25.61596371 0.49419095 28.25 2.1875 C28.91 3.1775 29.57 4.1675 30.25 5.1875 C30.9925 4.383125 31.735 3.57875 32.5 2.75 C36.66156727 -1.12782405 39.61942477 -1.07295321 45.2890625 -0.95703125 C48.06070033 -0.75274719 49.88411813 -0.29962575 52.25 1.1875 C54.99620366 5.35415383 55.37991502 8.29175486 55.25 13.1875 C55.84425781 12.2490625 56.43851562 11.310625 57.05078125 10.34375 C63.56940248 0.65351261 63.56940248 0.65351261 68.36328125 -0.67578125 C71.375 -0.625 71.375 -0.625 76.25 0.1875 C76.25 5.4675 76.25 10.7475 76.25 16.1875 C77.57 16.1875 78.89 16.1875 80.25 16.1875 C80.25 18.8275 80.25 21.4675 80.25 24.1875 C78.93 24.1875 77.61 24.1875 76.25 24.1875 C76.25 25.8375 76.25 27.4875 76.25 29.1875 C73.28 29.1875 70.31 29.1875 67.25 29.1875 C67.25 27.5375 67.25 25.8875 67.25 24.1875 C63.29 24.1875 59.33 24.1875 55.25 24.1875 C55.25 25.8375 55.25 27.4875 55.25 29.1875 C47 29.1875 38.75 29.1875 30.25 29.1875 C29.755 27.7025 29.755 27.7025 29.25 26.1875 C28.816875 26.661875 28.38375 27.13625 27.9375 27.625 C24.42672515 30.87571746 20.20746126 30.45619858 15.6953125 30.41015625 C12.53286608 30.12220186 10.66965929 29.22908753 8.25 27.1875 C7.59 26.1975 6.93 25.2075 6.25 24.1875 C5.92 25.8375 5.59 27.4875 5.25 29.1875 C-2.67 29.1875 -10.59 29.1875 -18.75 29.1875 C-18.75 20.24632353 -18.75 20.24632353 -15.75 16.1875 C-7.81578947 11.1875 -7.81578947 11.1875 -3.75 11.1875 C-4.08 10.1975 -4.41 9.2075 -4.75 8.1875 C-6.07 8.1875 -7.39 8.1875 -8.75 8.1875 C-9.08 9.1775 -9.41 10.1675 -9.75 11.1875 C-12.72 11.1875 -15.69 11.1875 -18.75 11.1875 C-18.26136364 4.83522727 -18.26136364 4.83522727 -15.875 1.8125 C-11.22193751 -1.74572426 -5.42077424 -1.60159239 0 0 Z M16.25 7.1875 C13.63118969 11.11571547 13.96012263 14.62193139 14.25 19.1875 C15.24 20.6725 15.24 20.6725 16.25 22.1875 C17.9 21.8575 19.55 21.5275 21.25 21.1875 C22.66933513 16.92949462 22.97651677 12.95838462 21.25 8.75 C20.92 8.234375 20.59 7.71875 20.25 7.1875 C18.93 7.1875 17.61 7.1875 16.25 7.1875 Z M41.25 7.1875 C40.26 8.6725 40.26 8.6725 39.25 10.1875 C37.3046875 10.69921875 37.3046875 10.69921875 35.125 10.875 C33.206875 11.0296875 33.206875 11.0296875 31.25 11.1875 C31.25 13.8275 31.25 16.4675 31.25 19.1875 C31.889375 18.61 32.52875 18.0325 33.1875 17.4375 C36.9702731 14.65831977 40.92518508 12.95888389 45.25 11.1875 C45.25 9.8675 45.25 8.5475 45.25 7.1875 C43.93 7.1875 42.61 7.1875 41.25 7.1875 Z M64.6875 12.5625 C63.02914204 14.07557063 63.02914204 14.07557063 63.25 16.1875 C64.57 16.1875 65.89 16.1875 67.25 16.1875 C67.25 14.5375 67.25 12.8875 67.25 11.1875 C66.02822672 11.07739535 66.02822672 11.07739535 64.6875 12.5625 Z M4.25 13.1875 C3.92 14.1775 3.59 15.1675 3.25 16.1875 C1.0625 17.1875 1.0625 17.1875 -1.75 18.1875 C-3.75751815 19.17232022 -5.75934459 20.16902514 -7.75 21.1875 C-7.75 21.5175 -7.75 21.8475 -7.75 22.1875 C-3.46 22.1875 0.83 22.1875 5.25 22.1875 C5.25 19.2175 5.25 16.2475 5.25 13.1875 C4.92 13.1875 4.59 13.1875 4.25 13.1875 Z M46.6875 18.1875 C45.67558594 18.744375 44.66367187 19.30125 43.62109375 19.875 C42.83863281 20.308125 42.05617188 20.74125 41.25 21.1875 C41.25 21.5175 41.25 21.8475 41.25 22.1875 C45.21 22.1875 49.17 22.1875 53.25 22.1875 C53.25 19.8775 53.25 17.5675 53.25 15.1875 C51.02315663 15.1875 48.55778262 17.15561993 46.6875 18.1875 Z M30.25 21.1875 C31.25 23.1875 31.25 23.1875 31.25 23.1875 Z " fill="#006878" transform="translate(350.75,58.8125)"/>
<path d="M0 0 C12.54 0 25.08 0 38 0 C39.5731146 3.9327865 40.42732628 6.89583836 41 11 C42.96301592 7.49461443 43.95902388 3.86648272 45 0 C49.29 0 53.58 0 58 0 C58 9.57 58 19.14 58 29 C55.36 29 52.72 29 50 29 C49.505 23.555 49.505 23.555 49 18 C48.01 21.63 47.02 25.26 46 29 C43.03 29 40.06 29 37 29 C36.01 25.37 35.02 21.74 34 18 C33.67 21.63 33.34 25.26 33 29 C22.11 29 11.22 29 0 29 C0 19.43 0 9.86 0 0 Z M10 8 C10 8.99 10 9.98 10 11 C14.29 11 18.58 11 23 11 C23 13.31 23 15.62 23 18 C18.71 18 14.42 18 10 18 C10 18.99 10 19.98 10 21 C14.62 21 19.24 21 24 21 C24 16.71 24 12.42 24 8 C19.38 8 14.76 8 10 8 Z " fill="#BFC2DD" transform="translate(202,59)"/>
<path d="M0 0 C3.9323173 2.65202795 6.18648186 5.30944559 7.6875 9.8125 C8.2989993 14.80932285 8.48908285 19.34410646 5.6875 23.6875 C2.65521858 27.28194596 -0.76532414 29.57384278 -5.3125 30.8125 C-11.30130268 31.21852052 -15.71282782 29.75507615 -20.3125 25.8125 C-23.70717013 21.71548433 -24.60018366 17.04311196 -24.3125 11.8125 C-22.72492134 6.47673268 -20.03230606 2.8380167 -15.3125 -0.1875 C-10.1060264 -1.9229912 -5.16315911 -1.85094383 0 0 Z " fill="#026A7A" transform="translate(180.3125,50.1875)"/>
<path d="M0 0 C3.3825 -0.0825 6.765 -0.165 10.25 -0.25 C11.30993164 -0.28641602 12.36986328 -0.32283203 13.46191406 -0.36035156 C20.33384703 -0.44181616 20.33384703 -0.44181616 23.65625 1.76171875 C25.1007261 4.16777924 25.44186511 5.29644465 25.25 8.0625 C24.7626686 12.70038111 24.7626686 12.70038111 26 17 C26.56724457 24.03383269 26.56724457 24.03383269 24.68359375 27.2421875 C20.33276635 30.09207444 15.81664232 29.41590281 10.75 29.25 C7.2025 29.1675 3.655 29.085 0 29 C0 19.43 0 9.86 0 0 Z M9 7 C9 8.32 9 9.64 9 11 C10.98 11 12.96 11 15 11 C15 9.68 15 8.36 15 7 C13.02 7 11.04 7 9 7 Z M9 18 C9 19.32 9 20.64 9 22 C11.31 22 13.62 22 16 22 C16 20.68 16 19.36 16 18 C13.69 18 11.38 18 9 18 Z " fill="#C8CCE7" transform="translate(298,59)"/>
<path d="M0 0 C0.33 0 0.66 0 1 0 C1 1.98 1 3.96 1 6 C1.99 6 2.98 6 4 6 C4 6.66 4 7.32 4 8 C5.258125 7.87625 6.51625 7.7525 7.8125 7.625 C8.87404297 7.52058594 8.87404297 7.52058594 9.95703125 7.4140625 C12.29988142 7.07334609 12.29988142 7.07334609 15 5 C17.375 4.625 17.375 4.625 20 5 C22.5625 6.875 22.5625 6.875 25 9 C25.68835938 9.24363281 26.37671875 9.48726562 27.0859375 9.73828125 C29 11 29 11 29.78515625 13.86328125 C30.53776776 23.22322435 30.53776776 23.22322435 27.75 27.25 C22.90480177 30.33330797 18.58934368 30.52639367 13 30 C8.25423912 28.2986895 5.66588924 26.26542279 3 22 C-0.23052327 15.10450378 -1.95881144 8.63905509 -1 1 C-0.67 0.67 -0.34 0.34 0 0 Z " fill="#CCD0EC" transform="translate(153,99)"/>
<path d="M0 0 C2.97 0 5.94 0 9 0 C9.06058594 1.43214844 9.12117188 2.86429688 9.18359375 4.33984375 C9.26798104 6.20574041 9.35262993 8.07162524 9.4375 9.9375 C9.47681641 10.88302734 9.51613281 11.82855469 9.55664062 12.80273438 C9.61948242 14.15141602 9.61948242 14.15141602 9.68359375 15.52734375 C9.72025146 16.35999756 9.75690918 17.19265137 9.79467773 18.05053711 C9.79367103 20.00338858 9.79367103 20.00338858 11 21 C12.66617115 21.04063832 14.33388095 21.042721 16 21 C17.14654482 18.70691037 17.19729117 17.20090344 17.31640625 14.6484375 C17.35830078 13.79765625 17.40019531 12.946875 17.44335938 12.0703125 C17.48267578 11.18085937 17.52199219 10.29140625 17.5625 9.375 C17.60568359 8.4778125 17.64886719 7.580625 17.69335938 6.65625 C17.79956715 4.43768761 17.90029959 2.21886435 18 0 C20.97 0 23.94 0 27 0 C27.14592789 3.70791544 27.23427895 7.41508726 27.3125 11.125 C27.35439453 12.17171875 27.39628906 13.2184375 27.43945312 14.296875 C27.57762368 23.02925428 27.57762368 23.02925428 24.66796875 26.6796875 C20.25159088 30.52057835 16.27536002 30.28146865 10.6640625 30.21484375 C7.32007953 29.9451677 5.49261382 29.25893128 3 27 C-1.11266362 22.14048464 -0.33755906 16.70140546 -0.1875 10.6875 C-0.17396484 9.66076172 -0.16042969 8.63402344 -0.14648438 7.57617188 C-0.11123883 5.05024091 -0.061967 2.5253934 0 0 Z " fill="#B7BAD3" transform="translate(270,59)"/>
<path d="M0 0 C2.5 1.375 2.5 1.375 5 3 C5 3.66 5 4.32 5 5 C9.29 5 13.58 5 18 5 C18 7.31 18 9.62 18 12 C13.71 12 9.42 12 5 12 C5 13.32 5 14.64 5 16 C9.62 16 14.24 16 19 16 C19 18.31 19 20.62 19 23 C11.08 23 3.16 23 -5 23 C-5.103125 19.761875 -5.20625 16.52375 -5.3125 13.1875 C-5.35802002 12.17067139 -5.40354004 11.15384277 -5.45043945 10.10620117 C-5.4885339 7.65169013 -5.46899671 5.4126967 -5 3 C-2.48046875 0.86328125 -2.48046875 0.86328125 0 0 Z " fill="#C7CAE5" transform="translate(207,65)"/>
<path d="M0 0 C2.50670488 2.50670488 2.48472791 3.97321534 3 7.4375 C3.54824376 11.11367023 3.89953191 12.84929786 6 16 C8.08946936 16.61884051 8.08946936 16.61884051 10.4375 16.75 C11.61119141 16.86601563 11.61119141 16.86601563 12.80859375 16.984375 C15.18053232 17.119258 15.18053232 17.119258 18 16 C23.25765945 15.60319551 26.56102842 16.10501854 31 19 C35.02970972 22.97540096 36.88600745 26.20461741 37.25 31.9375 C37.22368698 35.50949301 36.59764097 37.40235903 34 40 C32.77748569 37.55497138 32.89652483 35.78730527 32.8125 33.0625 C32.65206029 30.38716693 32.65206029 30.38716693 32 28 C29.18169754 25.88166255 29.18169754 25.88166255 26 25 C25.34 24.34 24.68 23.68 24 23 C20.70718521 23.3106429 17.54749711 23.88540758 14.3125 24.5625 C12 25 12 25 8 25 C8 24.34 8 23.68 8 23 C7.01 23 6.02 23 5 23 C4.67 21.35 4.34 19.7 4 18 C3.01 17.67 2.02 17.34 1 17 C-0.53266582 13.93466836 -0.10276471 10.73245728 -0.0625 7.375 C-0.05798828 6.66859375 -0.05347656 5.9621875 -0.04882812 5.234375 C-0.03703875 3.48954725 -0.01910324 1.744763 0 0 Z " fill="#A3A6BC" transform="translate(149,82)"/>
<path d="M0 0 C12.54 0 25.08 0 38 0 C39.683989 4.2099725 40.24059853 5.78952566 40 10 C37.87491756 6.81237635 37.4979837 4.73487777 37 1 C33.37 1.33 29.74 1.66 26 2 C25.67 3.32 25.34 4.64 25 6 C27.64 5.67 30.28 5.34 33 5 C33.99 6.32 34.98 7.64 36 9 C32.7 9.66 29.4 10.32 26 11 C25.67 16.94 25.34 22.88 25 29 C24.67 29 24.34 29 24 29 C24 26.69 24 24.38 24 22 C19.38 22 14.76 22 10 22 C10 21.67 10 21.34 10 21 C14.62 21 19.24 21 24 21 C24 16.71 24 12.42 24 8 C22.96359375 8.09539062 21.9271875 8.19078125 20.859375 8.2890625 C19.48963271 8.40164406 18.11983807 8.51358988 16.75 8.625 C16.06808594 8.68945312 15.38617188 8.75390625 14.68359375 8.8203125 C10.76669886 9.12453735 8.39286834 8.94775775 5 7 C2.2806707 7.78702351 2.2806707 7.78702351 0 9 C0 6.03 0 3.06 0 0 Z " fill="#A0A4B9" transform="translate(202,59)"/>
<path d="M0 0 C2.97 0 5.94 0 9 0 C9.14592789 3.70791544 9.23427895 7.41508726 9.3125 11.125 C9.3753418 12.69507812 9.3753418 12.69507812 9.43945312 14.296875 C9.57763214 23.02978902 9.57763214 23.02978902 6.65625 26.71875 C4 29 4 29 1.1875 29.375 C0.465625 29.25125 -0.25625 29.1275 -1 29 C-1.33 28.34 -1.66 27.68 -2 27 C-1.67 26.34 -1.34 25.68 -1 25 C-0.84655791 23.11527141 -0.75040429 21.22572126 -0.68359375 19.3359375 C-0.62075195 17.65371094 -0.62075195 17.65371094 -0.55664062 15.9375 C-0.51732422 14.761875 -0.47800781 13.58625 -0.4375 12.375 C-0.39431641 11.19164063 -0.35113281 10.00828125 -0.30664062 8.7890625 C-0.20032574 5.85949672 -0.09829358 2.92984412 0 0 Z " fill="#C6CAE5" transform="translate(288,59)"/>
<path d="M0 0 C3.41751005 -0.10792137 6.83161597 -0.18727736 10.25 -0.25 C11.70212891 -0.30027344 11.70212891 -0.30027344 13.18359375 -0.3515625 C20.31703295 -0.44995476 20.31703295 -0.44995476 23.65625 1.75 C25.80957444 5.35556651 25.27545237 7.86821442 25 12 C23.02 12.99 23.02 12.99 21 14 C20.71125 13.195625 20.4225 12.39125 20.125 11.5625 C19.26737432 8.8673532 19.26737432 8.8673532 17 8 C16.67 8.66 16.34 9.32 16 10 C15.67 9.34 15.34 8.68 15 8 C11.97065509 7.34227572 11.97065509 7.34227572 9 7 C8.67 7.99 8.34 8.98 8 10 C7.01 9.67 6.02 9.34 5 9 C3.35 9.66 1.7 10.32 0 11 C0 7.37 0 3.74 0 0 Z " fill="#A1A4BA" transform="translate(298,59)"/>
<path d="M0 0 C1.88022834 1.34032341 3.44731557 2.6296343 4.9453125 4.38671875 C4.9453125 5.04671875 4.9453125 5.70671875 4.9453125 6.38671875 C4.2853125 6.38671875 3.6253125 6.38671875 2.9453125 6.38671875 C2.1821875 5.60296875 1.4190625 4.81921875 0.6328125 4.01171875 C-3.28017961 0.18972646 -6.952087 -0.93284621 -12.3671875 -1.17578125 C-17.99800922 -1.10720561 -20.67528114 0.77367489 -24.59375 4.66015625 C-26.12683765 6.3340594 -26.12683765 6.3340594 -27.0546875 8.38671875 C-26.0234375 7.58234375 -24.9921875 6.77796875 -23.9296875 5.94921875 C-20.68341054 3.60872579 -18.10566367 2.68313164 -14.0546875 2.38671875 C-14.0546875 2.71671875 -14.0546875 3.04671875 -14.0546875 3.38671875 C-11.7446875 4.04671875 -9.4346875 4.70671875 -7.0546875 5.38671875 C-7.3846875 6.04671875 -7.7146875 6.70671875 -8.0546875 7.38671875 C-8.66054687 7.28230469 -9.26640625 7.17789063 -9.890625 7.0703125 C-14.3329098 6.63975259 -17.07790843 6.76136635 -20.91015625 9.21484375 C-26.85002993 14.22772102 -26.85002993 14.22772102 -29.0546875 21.38671875 C-29.09293373 23.71973861 -29.10043034 26.05383383 -29.0546875 28.38671875 C-33.04805811 23.52522409 -33.47981386 19.65733263 -33.0546875 13.38671875 C-31.09064495 7.27636415 -27.82979326 1.64063211 -22.203125 -1.71875 C-14.10065971 -5.15664862 -7.46798749 -4.45670221 0 0 Z " fill="#AFB2CA" transform="translate(143.0546875,73.61328125)"/>
<path d="M0 0 C9.97814208 -0.36065574 9.97814208 -0.36065574 14.1875 1.125 C16 3 16 3 16.375 6 C16 9 16 9 15 12 C15.33 12.66 15.66 13.32 16 14 C16.04022391 16.3329866 16.04320247 18.66706666 16 21 C14.68 21 13.36 21 12 21 C11.67 18.69 11.34 16.38 11 14 C8.36 13.67 5.72 13.34 3 13 C3 15.64 3 18.28 3 21 C2.01 21 1.02 21 0 21 C0 14.07 0 7.14 0 0 Z M3 4 C3 5.98 3 7.96 3 10 C7.7897321 10.23428313 7.7897321 10.23428313 12 8 C11.67 6.68 11.34 5.36 11 4 C8.36 4 5.72 4 3 4 Z " fill="#ABAFC6" transform="translate(314,99)"/>
<path d="M0 0 C11.80359406 -0.28103795 11.80359406 -0.28103795 15 2 C15.91214879 5.85909105 16.26132231 8.21603308 15 12 C15.09406754 14.29453495 15.09406754 14.29453495 15.4375 16.6875 C15.53933594 17.49574219 15.64117187 18.30398437 15.74609375 19.13671875 C15.82988281 19.75160156 15.91367187 20.36648437 16 21 C14.68 21 13.36 21 12 21 C11.67 18.36 11.34 15.72 11 13 C8.36 13 5.72 13 3 13 C3 15.64 3 18.28 3 21 C2.01 21 1.02 21 0 21 C0 14.07 0 7.14 0 0 Z M3 4 C3 5.98 3 7.96 3 10 C7.7897321 10.23428313 7.7897321 10.23428313 12 8 C11.67 6.68 11.34 5.36 11 4 C8.36 4 5.72 4 3 4 Z " fill="#ABAEC5" transform="translate(246,99)"/>
<path d="M0 0 C1.32 0 2.64 0 4 0 C4.33 2.64 4.66 5.28 5 8 C5.53109375 7.4225 6.0621875 6.845 6.609375 6.25 C7.66898437 5.13625 7.66898437 5.13625 8.75 4 C9.44609375 3.2575 10.1421875 2.515 10.859375 1.75 C13 0 13 0 17 0 C16.65705216 3.2008465 16.05558818 3.95413975 13.5 6.0625 C12.675 6.701875 11.85 7.34125 11 8 C10.67 8.99 10.34 9.98 10 11 C10.66 11 11.32 11 12 11 C13.2890625 12.6796875 13.2890625 12.6796875 14.625 14.875 C15.07101562 15.59429687 15.51703125 16.31359375 15.9765625 17.0546875 C17 19 17 19 17 21 C14.8125 20.9375 14.8125 20.9375 12 20 C10.06842043 17.8282781 8.51798313 15.47398953 7 13 C6.01 13.495 6.01 13.495 5 14 C4.59270772 16.32156597 4.25561323 18.6568787 4 21 C2.68 21 1.36 21 0 21 C0 14.07 0 7.14 0 0 Z " fill="#A6A9C0" transform="translate(364,99)"/>
<path d="M0 0 C3 2.3125 3 2.3125 5 5 C5 5.99 5 6.98 5 8 C3.68 8 2.36 8 1 8 C0.34 7.01 -0.32 6.02 -1 5 C-4.58357241 4.74984127 -4.58357241 4.74984127 -8 5 C-9.50934217 8.01868434 -9.17510672 10.67297229 -9 14 C-8.01 15.485 -8.01 15.485 -7 17 C-4.04253508 17.58345476 -4.04253508 17.58345476 -1 17 C0.70532323 15.05990478 0.70532323 15.05990478 2 13 C2.99 13 3.98 13 5 13 C4.50233954 16.68268739 3.93714041 18.65028767 1 21 C-1.82001327 22.41000664 -3.87007255 22.24548451 -7 22 C-10.11695474 20.65404227 -11.59722209 19.69047642 -13.3125 16.75 C-14.58828937 11.64684254 -14.71793783 8.29228809 -12.125 3.625 C-8.76288885 -0.52819613 -5.15720338 -0.89733367 0 0 Z " fill="#9395A8" transform="translate(217,99)"/>
<path d="M0 0 C4.95 0 9.9 0 15 0 C15 1.32 15 2.64 15 4 C11.37 4 7.74 4 4 4 C4 5.65 4 7.3 4 9 C7.3 9 10.6 9 14 9 C14 9.99 14 10.98 14 12 C10.7 12 7.4 12 4 12 C4 13.98 4 15.96 4 18 C7.63 18 11.26 18 15 18 C15 18.99 15 19.98 15 21 C10.05 21 5.1 21 0 21 C0 14.07 0 7.14 0 0 Z " fill="#ACAFC7" transform="translate(294,99)"/>
<path d="M0 0 C1.32 0 2.64 0 4 0 C5.33912585 3.12254943 6.67030658 6.24842358 8 9.375 C8.3815625 10.26445313 8.763125 11.15390625 9.15625 12.0703125 C9.5171875 12.92109375 9.878125 13.771875 10.25 14.6484375 C10.58515625 15.43395996 10.9203125 16.21948242 11.265625 17.02880859 C12 19 12 19 12 21 C10.35 20.67 8.7 20.34 7 20 C6.67 18.35 6.34 16.7 6 15 C3.36 15.33 0.72 15.66 -2 16 C-2.99 18.475 -2.99 18.475 -4 21 C-5.32 21 -6.64 21 -8 21 C-7.301897 16.49723568 -5.71324524 12.44421829 -4 8.25 C-3.59007812 7.22326172 -3.59007812 7.22326172 -3.171875 6.17578125 C-1.13600498 1.13600498 -1.13600498 1.13600498 0 0 Z M1 6 C0.34 7.98 -0.32 9.96 -1 12 C0.65 12 2.3 12 4 12 C3.34 10.02 2.68 8.04 2 6 C1.67 6 1.34 6 1 6 Z " fill="#B0B4CB" transform="translate(416,99)"/>
<path d="M0 0 C5 1 5 1 6.21020508 2.62646484 C6.47728271 3.31434082 6.74436035 4.0022168 7.01953125 4.7109375 C7.4690918 5.83628906 7.4690918 5.83628906 7.92773438 6.984375 C8.36569336 8.16773437 8.36569336 8.16773437 8.8125 9.375 C9.12380859 10.15617187 9.43511719 10.93734375 9.75585938 11.7421875 C12 17.50297047 12 17.50297047 12 21 C10.68 21 9.36 21 8 21 C7.34 19.35 6.68 17.7 6 16 C3.36 15.67 0.72 15.34 -2 15 C-2.66 16.98 -3.32 18.96 -4 21 C-5.32 20.67 -6.64 20.34 -8 20 C-5.36 13.4 -2.72 6.8 0 0 Z M2 6 C1.34 7.98 0.68 9.96 0 12 C1.65 12 3.3 12 5 12 C4.34 10.02 3.68 8.04 3 6 C2.67 6 2.34 6 2 6 Z " fill="#ACAFC7" transform="translate(340,99)"/>
<path d="M0 0 C4.62 0 9.24 0 14 0 C14 1.32 14 2.64 14 4 C10.37 4 6.74 4 3 4 C3 5.65 3 7.3 3 9 C6.3 9 9.6 9 13 9 C13 9.99 13 10.98 13 12 C9.7 12 6.4 12 3 12 C3 13.98 3 15.96 3 18 C6.96 18 10.92 18 15 18 C15 18.99 15 19.98 15 21 C10.05 21 5.1 21 0 21 C0 14.07 0 7.14 0 0 Z " fill="#ADB1C8" transform="translate(227,99)"/>
<path d="M0 0 C0.763125 0.20625 1.52625 0.4125 2.3125 0.625 C3.40837955 4.87051856 3.24115836 8.5842839 2.875 12.9375 C2.77316406 14.19175781 2.67132813 15.44601563 2.56640625 16.73828125 C2.48261719 17.69089844 2.39882812 18.64351562 2.3125 19.625 C-0.3275 19.625 -2.9675 19.625 -5.6875 19.625 C-5.76819658 16.66612541 -5.82784665 13.7094341 -5.875 10.75 C-5.90013672 9.90824219 -5.92527344 9.06648438 -5.95117188 8.19921875 C-5.96083984 7.39355469 -5.97050781 6.58789062 -5.98046875 5.7578125 C-5.9961792 5.01418457 -6.01188965 4.27055664 -6.02807617 3.50439453 C-5.91568604 2.88419434 -5.8032959 2.26399414 -5.6875 1.625 C-2.6875 -0.375 -2.6875 -0.375 0 0 Z " fill="#CCD0EB" transform="translate(232.6875,68.375)"/>
<path d="M0 0 C0.33 1.65 0.66 3.3 1 5 C1.33 5 1.66 5 2 5 C2 9.95 2 14.9 2 20 C-0.64 20 -3.28 20 -6 20 C-6.06058594 18.95199219 -6.12117187 17.90398437 -6.18359375 16.82421875 C-6.26801738 15.44529952 -6.35266447 14.06639395 -6.4375 12.6875 C-6.47681641 11.99720703 -6.51613281 11.30691406 -6.55664062 10.59570312 C-6.74927415 7.52838465 -7.02322717 4.93031848 -8 2 C-4.91190305 0.23537317 -3.76687864 0 0 0 Z " fill="#C8CCE7" transform="translate(258,68)"/>
<path d="M0 0 C5.61 0 11.22 0 17 0 C17 1.32 17 2.64 17 4 C15.02 4 13.04 4 11 4 C11 9.61 11 15.22 11 21 C9.68 21 8.36 21 7 21 C7 15.39 7 9.78 7 4 C4.69 4 2.38 4 0 4 C0 2.68 0 1.36 0 0 Z " fill="#A4A7BE" transform="translate(392,99)"/>
<path d="M0 0 C5.61 0 11.22 0 17 0 C17 1.32 17 2.64 17 4 C14.69 4 12.38 4 10 4 C10 9.61 10 15.22 10 21 C8.68 21 7.36 21 6 21 C6 15.39 6 9.78 6 4 C4.02 4 2.04 4 0 4 C0 2.68 0 1.36 0 0 Z " fill="#9EA1B6" transform="translate(274,99)"/>
<path d="M0 0 C4.29 0 8.58 0 13 0 C13 4.62 13 9.24 13 14 C12.01 14.495 12.01 14.495 11 15 C10.9175 13.88625 10.835 12.7725 10.75 11.625 C10.42126213 7.94246056 10.42126213 7.94246056 7.9375 6.5625 C7.298125 6.376875 6.65875 6.19125 6 6 C2.64002892 8.1653147 -0.16032769 10.16032769 -3 13 C-2.01 8.71 -1.02 4.42 0 0 Z " fill="#A5A8BE" transform="translate(247,59)"/>
<path d="M0 0 C1.88022834 1.34032341 3.44731557 2.6296343 4.9453125 4.38671875 C4.9453125 5.04671875 4.9453125 5.70671875 4.9453125 6.38671875 C4.2853125 6.38671875 3.6253125 6.38671875 2.9453125 6.38671875 C2.1821875 5.60296875 1.4190625 4.81921875 0.6328125 4.01171875 C-3.28017961 0.18972646 -6.952087 -0.93284621 -12.3671875 -1.17578125 C-17.89998081 -1.09364802 -20.53927381 0.63838483 -24.3984375 4.46484375 C-26.10775429 6.38897624 -26.10775429 6.38897624 -27.6484375 8.62109375 C-28.34453125 9.49507812 -28.34453125 9.49507812 -29.0546875 10.38671875 C-29.7146875 10.38671875 -30.3746875 10.38671875 -31.0546875 10.38671875 C-31.3846875 13.68671875 -31.7146875 16.98671875 -32.0546875 20.38671875 C-32.3846875 20.38671875 -32.7146875 20.38671875 -33.0546875 20.38671875 C-33.4922554 13.2397764 -31.70461845 8.26237852 -27.3671875 2.63671875 C-19.78853689 -5.66993032 -9.12825696 -5.44750819 0 0 Z " fill="#5F616E" transform="translate(143.0546875,73.61328125)"/>
<path d="M0 0 C9.7003861 -0.45868726 9.7003861 -0.45868726 14.1875 1.125 C16 3 16 3 16.5 6 C15.97251526 9.16490841 15.5143808 10.1142144 13 12 C13 11.34 13 10.68 13 10 C11.68 9.67 10.36 9.34 9 9 C9.66 8.67 10.32 8.34 11 8 C11 7.01 11 6.02 11 5 C8.36 4.67 5.72 4.34 3 4 C2.67 4.99 2.34 5.98 2 7 C1.01 7.495 1.01 7.495 0 8 C0 5.36 0 2.72 0 0 Z " fill="#9EA2B6" transform="translate(314,99)"/>
<path d="M0 0 C3 2.3125 3 2.3125 5 5 C5 5.99 5 6.98 5 8 C3.68 8 2.36 8 1 8 C0.34 7.01 -0.32 6.02 -1 5 C-4.45769191 4.41657647 -4.45769191 4.41657647 -8 5 C-9.91256712 6.88077873 -9.91256712 6.88077873 -11 9 C-11.33 9 -11.66 9 -12 9 C-12.33 10.65 -12.66 12.3 -13 14 C-13.33 14 -13.66 14 -14 14 C-14.4560284 8.29964499 -13.60412752 5.45215753 -10 1 C-6.7800729 -0.60996355 -3.48163124 -0.60579052 0 0 Z " fill="#9699AE" transform="translate(217,99)"/>
<path d="M0 0 C1.32 0.33 2.64 0.66 4 1 C4 7.6 4 14.2 4 21 C2.68 21 1.36 21 0 21 C0 14.07 0 7.14 0 0 Z " fill="#A1A4BB" transform="translate(385,99)"/>
<path d="M0 0 C2.50670488 2.50670488 2.48472791 3.97321534 3 7.4375 C3.54824376 11.11367023 3.89953191 12.84929786 6 16 C8.08946936 16.61884051 8.08946936 16.61884051 10.4375 16.75 C11.61119141 16.86601563 11.61119141 16.86601563 12.80859375 16.984375 C15.18053232 17.119258 15.18053232 17.119258 18 16 C23.26571469 15.60258757 26.4443154 16.3332578 31 19 C30.34 19.33 29.68 19.66 29 20 C28.29875 19.67 27.5975 19.34 26.875 19 C22.10465383 17.34074916 17.75894204 18.41368599 13 20 C10.1171875 19.51171875 10.1171875 19.51171875 6.875 18.6875 C5.79992187 18.42324219 4.72484375 18.15898438 3.6171875 17.88671875 C1 17 1 17 0 15 C-0.0716735 12.44842345 -0.09308442 9.92527029 -0.0625 7.375 C-0.05798828 6.66859375 -0.05347656 5.9621875 -0.04882812 5.234375 C-0.03703875 3.48954725 -0.01910324 1.744763 0 0 Z " fill="#7B7D8E" transform="translate(149,82)"/>
<path d="M0 0 C4.95 0 9.9 0 15 0 C15 1.32 15 2.64 15 4 C11.37 4 7.74 4 4 4 C3.67 3.34 3.34 2.68 3 2 C2.34 8.27 1.68 14.54 1 21 C0.67 21 0.34 21 0 21 C0 14.07 0 7.14 0 0 Z " fill="#9195A6" transform="translate(294,99)"/>
<path d="M0 0 C0.66 0.99 1.32 1.98 2 3 C-1.3 3.66 -4.6 4.32 -8 5 C-8.33 10.94 -8.66 16.88 -9 23 C-9.33 23 -9.66 23 -10 23 C-10 20.69 -10 18.38 -10 16 C-14.62 16 -19.24 16 -24 16 C-24 15.67 -24 15.34 -24 15 C-19.38 15 -14.76 15 -10 15 C-10.020625 12.89625 -10.04125 10.7925 -10.0625 8.625 C-10.125 2.25 -10.125 2.25 -9 0 C-5.7216248 -0.97465209 -3.19834842 -1.32345452 0 0 Z " fill="#ADAFC8" transform="translate(236,65)"/>
<path d="M0 0 C2.97 0 5.94 0 9 0 C9 2.64 9 5.28 9 8 C7.8553125 8.2165625 7.8553125 8.2165625 6.6875 8.4375 C3.91827092 8.9632594 3.91827092 8.9632594 1 10 C-0.60725635 6.78548731 -0.05748185 3.56387464 0 0 Z " fill="#A4A7BD" transform="translate(288,59)"/>
<path d="M0 0 C4.62 0 9.24 0 14 0 C14 1.32 14 2.64 14 4 C10.37 4 6.74 4 3 4 C3 5.65 3 7.3 3 9 C2.01 8.67 1.02 8.34 0 8 C0 5.36 0 2.72 0 0 Z " fill="#9DA1B4" transform="translate(227,99)"/>
<path d="M0 0 C0.33 0 0.66 0 1 0 C1.07427838 3.34252724 1.06546953 5.8035914 0 9 C0.66 9.66 1.32 10.32 2 11 C-1.63 11 -5.26 11 -9 11 C-8.34 10.67 -7.68 10.34 -7 10 C-7.33 7.03 -7.66 4.06 -8 1 C-5.69 1.33 -3.38 1.66 -1 2 C-0.67 1.34 -0.34 0.68 0 0 Z " fill="#ADB0C7" transform="translate(287,78)"/>
<path d="M0 0 C1.65 0.33 3.3 0.66 5 1 C5.99 3.97 6.98 6.94 8 10 C7.01 9.67 6.02 9.34 5 9 C4.67 9.66 4.34 10.32 4 11 C3.34 9.68 2.68 8.36 2 7 C1.01 8.485 1.01 8.485 0 10 C-0.33 9.34 -0.66 8.68 -1 8 C-1.66 9.32 -2.32 10.64 -3 12 C-4 10 -4 10 -3.22265625 7.6171875 C-2.83980469 6.71226563 -2.45695312 5.80734375 -2.0625 4.875 C-1.68222656 3.96492188 -1.30195313 3.05484375 -0.91015625 2.1171875 C-0.60980469 1.41851562 -0.30945313 0.71984375 0 0 Z " fill="#9294A7" transform="translate(340,99)"/>
<path d="M0 0 C2.5 1.375 2.5 1.375 5 3 C5 3.66 5 4.32 5 5 C3.35 4.67 1.7 4.34 0 4 C-2.48044315 7.72066472 -2.44381173 10.86540474 -2.625 15.1875 C-2.66367188 15.93708984 -2.70234375 16.68667969 -2.7421875 17.45898438 C-2.83628216 19.30559199 -2.91922319 21.1527619 -3 23 C-3.66 23 -4.32 23 -5 23 C-5.14510162 19.72963272 -5.23399373 16.46008993 -5.3125 13.1875 C-5.35439453 12.25873047 -5.39628906 11.32996094 -5.43945312 10.37304688 C-5.48551502 7.82121811 -5.48722926 5.50649184 -5 3 C-2.48046875 0.86328125 -2.48046875 0.86328125 0 0 Z " fill="#BABED7" transform="translate(207,65)"/>
<path d="M0 0 C1.32 0 2.64 0 4 0 C4.99 2.97 5.98 5.94 7 9 C6.01 8.67 5.02 8.34 4 8 C3.67 8.66 3.34 9.32 3 10 C2.67 9.34 2.34 8.68 2 8 C1.566875 8.495 1.13375 8.99 0.6875 9.5 C-1 11 -1 11 -4 11 C-3.5247412 9.35303396 -3.04468109 7.70745272 -2.5625 6.0625 C-2.29566406 5.14597656 -2.02882813 4.22945313 -1.75390625 3.28515625 C-1 1 -1 1 0 0 Z " fill="#9598AB" transform="translate(416,99)"/>
<path d="M0 0 C1.8125 2 1.8125 2 3 4 C1.5422647 4.335939 0.08378894 4.66866624 -1.375 5 C-2.18710938 5.185625 -2.99921875 5.37125 -3.8359375 5.5625 C-6 6 -6 6 -8 6 C-9.66965451 6.31802943 -11.33678518 6.64984951 -13 7 C-13.33 5.68 -13.66 4.36 -14 3 C-12.88625 2.690625 -11.7725 2.38125 -10.625 2.0625 C-2.53394124 -0.30901722 -2.53394124 -0.30901722 0 0 Z " fill="#BABED7" transform="translate(173,104)"/>
<path d="M0 0 C0.99 0 1.98 0 3 0 C3 6.93 3 13.86 3 21 C2.01 21 1.02 21 0 21 C0 14.07 0 7.14 0 0 Z " fill="#9EA1B6" transform="translate(267,99)"/>
<path d="M0 0 C0.33 0 0.66 0 1 0 C1.33 2.64 1.66 5.28 2 8 C2.53109375 7.4225 3.0621875 6.845 3.609375 6.25 C4.31578125 5.5075 5.0221875 4.765 5.75 4 C6.79414063 2.88625 6.79414063 2.88625 7.859375 1.75 C10 0 10 0 14 0 C13.66141506 3.16012613 13.05398412 3.95432113 10.5625 6.0625 C9.716875 6.701875 8.87125 7.34125 8 8 C7.01 9.485 7.01 9.485 6 11 C5.67 10.34 5.34 9.68 5 9 C3.35 9.33 1.7 9.66 0 10 C0 6.7 0 3.4 0 0 Z " fill="#898C9D" transform="translate(367,99)"/>
<path d="M0 0 C1.74965358 -0.05429959 3.49979787 -0.09292823 5.25 -0.125 C6.22453125 -0.14820312 7.1990625 -0.17140625 8.203125 -0.1953125 C11.07259784 0.00506968 12.66442163 0.33711125 15 2 C15.875 5.4375 15.875 5.4375 16 9 C15.01 10.485 15.01 10.485 14 12 C13.34 12 12.68 12 12 12 C12 11.34 12 10.68 12 10 C11.01 9.67 10.02 9.34 9 9 C9.66 8.67 10.32 8.34 11 8 C11 7.01 11 6.02 11 5 C10.34 4.34 9.68 3.68 9 3 C9.33 2.67 9.66 2.34 10 2 C6.7 2 3.4 2 0 2 C0 1.34 0 0.68 0 0 Z " fill="#9196A9" transform="translate(246,99)"/>
<path d="M0 0 C0.66 0.33 1.32 0.66 2 1 C1.50628906 1.44730469 1.01257813 1.89460938 0.50390625 2.35546875 C-3.41225524 5.94114715 -3.41225524 5.94114715 -5.9375 10.5 C-6.01676378 13.67055131 -6.06218145 16.82874599 -6 20 C-8.60662202 17.50198723 -9.39138007 15.19002131 -9.75 11.6875 C-9.68428413 8.37980116 -9.28402205 7.30163582 -6.984375 4.859375 C-4.71867683 3.10666509 -2.43693977 1.50374656 0 0 Z " fill="#BEC1DB" transform="translate(120,82)"/>
<path d="M0 0 C1.42892578 0.00966797 1.42892578 0.00966797 2.88671875 0.01953125 C5.3125 0.1875 5.3125 0.1875 7.3125 1.1875 C6.6525 2.5075 5.9925 3.8275 5.3125 5.1875 C4.9825 4.5275 4.6525 3.8675 4.3125 3.1875 C1.28315509 2.52977572 1.28315509 2.52977572 -1.6875 2.1875 C-2.0175 3.1775 -2.3475 4.1675 -2.6875 5.1875 C-3.6775 4.8575 -4.6675 4.5275 -5.6875 4.1875 C-8.3444191 5.06664688 -8.3444191 5.06664688 -10.6875 6.1875 C-10.6875 4.8675 -10.6875 3.5475 -10.6875 2.1875 C-6.97031921 0.47448226 -4.08360651 -0.06128195 0 0 Z " fill="#B2B6CE" transform="translate(308.6875,63.8125)"/>
<path d="M0 0 C2.60924787 1.00861682 3.79748847 1.66498092 5.265625 4.09375 C5.59046875 4.8878125 5.9153125 5.681875 6.25 6.5 C6.75273437 7.69109375 6.75273437 7.69109375 7.265625 8.90625 C8 11 8 11 8 13 C5.6875 13 5.6875 13 3 12 C0.70000073 8.07382937 0 4.52591158 0 0 Z " fill="#A3A6BB" transform="translate(420,107)"/>
<path d="M0 0 C4.875 1.875 4.875 1.875 6 3 C6.47058824 8.41176471 6.47058824 8.41176471 4.5 10.875 C3.7575 11.431875 3.7575 11.431875 3 12 C3 11.34 3 10.68 3 10 C1.68 9.67 0.36 9.34 -1 9 C-0.34 8.67 0.32 8.34 1 8 C1 7.01 1 6.02 1 5 C0.34 4.34 -0.32 3.68 -1 3 C-0.67 2.01 -0.34 1.02 0 0 Z " fill="#858A9B" transform="translate(324,99)"/>
<path d="M0 0 C2 0 4 0 6 0 C7.2890625 1.6796875 7.2890625 1.6796875 8.625 3.875 C9.07101562 4.59429687 9.51703125 5.31359375 9.9765625 6.0546875 C11 8 11 8 11 10 C7.75480334 9.69593558 6.38099448 9.43719323 4.19921875 6.93359375 C3.70035156 6.10988281 3.20148438 5.28617187 2.6875 4.4375 C2.17574219 3.61121094 1.66398437 2.78492187 1.13671875 1.93359375 C0.76160156 1.29550781 0.38648438 0.65742187 0 0 Z " fill="#999CB0" transform="translate(370,110)"/>
<path d="M0 0 C0.66 0.33 1.32 0.66 2 1 C2.7013284 3.32315031 3.36485174 5.65789079 4 8 C4.62469505 9.35350594 5.2716331 10.69934483 6 12 C3.625 12.1875 3.625 12.1875 1 12 C-1.69461986 7.95807022 -1.23200889 5.7948504 -1 1 C-0.67 0.67 -0.34 0.34 0 0 Z " fill="#9EA1B6" transform="translate(205,107)"/>
<path d="M0 0 C4.62 0 9.24 0 14 0 C14 0.99 14 1.98 14 3 C9.05 3 4.1 3 -1 3 C-0.67 2.01 -0.34 1.02 0 0 Z " fill="#A6A9BF" transform="translate(228,117)"/>
<path d="M0 0 C7.20759389 -0.61081304 7.20759389 -0.61081304 11 2.3125 C13 5 13 5 13 8 C11.68 8 10.36 8 9 8 C8.34 7.01 7.68 6.02 7 5 C4.94996045 3.80767387 4.94996045 3.80767387 3 3 C4.32 2.67 5.64 2.34 7 2 C4.69 1.67 2.38 1.34 0 1 C0 0.67 0 0.34 0 0 Z " fill="#818496" transform="translate(209,99)"/>
<path d="M0 0 C0.8971875 0.309375 0.8971875 0.309375 1.8125 0.625 C1.8125 1.285 1.8125 1.945 1.8125 2.625 C1.214375 2.7075 0.61625 2.79 0 2.875 C-3.01042478 3.90714564 -3.7007649 4.79312362 -5.1875 7.625 C-5.72370123 10.61535301 -5.99970297 13.59434451 -6.1875 16.625 C-6.5175 16.625 -6.8475 16.625 -7.1875 16.625 C-7.1875 11.345 -7.1875 6.065 -7.1875 0.625 C-6.1975 1.12 -6.1975 1.12 -5.1875 1.625 C-2.1875 -0.375 -2.1875 -0.375 0 0 Z " fill="#BABDD7" transform="translate(295.1875,66.375)"/>
<path d="M0 0 C2.84765625 0.30078125 2.84765625 0.30078125 4.9375 0.6875 C4.9375 2.6675 4.9375 4.6475 4.9375 6.6875 C4.6075 6.6875 4.2775 6.6875 3.9375 6.6875 C3.9375 5.0375 3.9375 3.3875 3.9375 1.6875 C-0.82272534 1.5144009 -2.99103802 1.71839648 -6.59765625 4.98046875 C-8.83456477 7.49388895 -10.98669349 10.03988568 -13.0625 12.6875 C-13.7225 12.3575 -14.3825 12.0275 -15.0625 11.6875 C-7.30986892 -0.10415616 -7.30986892 -0.10415616 0 0 Z " fill="#004A58" transform="translate(422.0625,58.3125)"/>
<path d="M0 0 C1.23556641 0.01740234 1.23556641 0.01740234 2.49609375 0.03515625 C3.32238281 0.04417969 4.14867187 0.05320312 5 0.0625 C5.63808594 0.07410156 6.27617187 0.08570312 6.93359375 0.09765625 C7.26359375 0.75765625 7.59359375 1.41765625 7.93359375 2.09765625 C5.2248004 3.45205293 2.92426107 3.16267076 -0.06640625 3.09765625 C-0.39640625 4.08765625 -0.72640625 5.07765625 -1.06640625 6.09765625 C-2.05640625 6.59265625 -2.05640625 6.59265625 -3.06640625 7.09765625 C-3.10894981 5.09810879 -3.10721408 3.09723989 -3.06640625 1.09765625 C-2.06640625 0.09765625 -2.06640625 0.09765625 0 0 Z " fill="#9FA3B8" transform="translate(249.06640625,99.90234375)"/>
<path d="M0 0 C0.66 0.66 1.32 1.32 2 2 C-0.59398004 2.83007361 -2.55197273 2.98958542 -5.3125 2.9375 C-9.33592818 3.0056937 -12.20244313 3.75998143 -16 5 C-11.90863107 -0.00056202 -6.11878183 -0.47067553 0 0 Z " fill="#BBBFD8" transform="translate(134,78)"/>
<path d="M0 0 C0.7425 0.53625 1.485 1.0725 2.25 1.625 C-0.61177057 3.05588528 -2.68375773 2.22491697 -5.75 1.625 C-5.976875 2.2025 -6.20375 2.78 -6.4375 3.375 C-8.08038023 6.1913661 -10.14533227 7.70577114 -12.75 9.625 C-10.88665524 5.43247429 -8.4605365 1.94928632 -4.8125 -0.875 C-2.75 -1.375 -2.75 -1.375 0 0 Z " fill="#B5B8D1" transform="translate(255.75,65.375)"/>
<path d="M0 0 C3 3 3 3 3.3984375 4.9375 C3.39070313 5.618125 3.38296875 6.29875 3.375 7 C3.38273437 7.680625 3.39046875 8.36125 3.3984375 9.0625 C3 11 3 11 0 14 C0 9.38 0 4.76 0 0 Z " fill="#ADAFC8" transform="translate(321,73)"/>
<path d="M0 0 C2.29777367 3.44666051 2.23697759 3.75586767 1.5 7.625 C1.2525 8.800625 1.2525 8.800625 1 10 C-0.32 10 -1.64 10 -3 10 C-2.39009109 6.44219804 -1.4216319 3.3171411 0 0 Z " fill="#9598AD" transform="translate(411,110)"/>
<path d="M0 0 C0.33 0.99 0.66 1.98 1 3 C1.66 3 2.32 3 3 3 C2.34 4.98 1.68 6.96 1 9 C-0.32 8.67 -1.64 8.34 -3 8 C-2.01 5.36 -1.02 2.72 0 0 Z " fill="#9A9DB3" transform="translate(335,111)"/>
<path d="M0 0 C0.33 0.66 0.66 1.32 1 2 C1.99 2 2.98 2 4 2 C3.34 3.98 2.68 5.96 2 8 C1.34 7.34 0.68 6.68 0 6 C-0.66 7.32 -1.32 8.64 -2 10 C-3 8 -3 8 -2.44140625 6.0546875 C-2.15136719 5.33539063 -1.86132812 4.61609375 -1.5625 3.875 C-1.27503906 3.15054688 -0.98757813 2.42609375 -0.69140625 1.6796875 C-0.46324219 1.12539062 -0.23507812 0.57109375 0 0 Z " fill="#86889A" transform="translate(339,101)"/>
<path d="M0 0 C4 6 4 6 4 10 C2.68 10 1.36 10 0 10 C-0.33 8.68 -0.66 7.36 -1 6 C-0.34 6 0.32 6 1 6 C0.67 4.02 0.34 2.04 0 0 Z " fill="#9698AB" transform="translate(348,110)"/>
<path d="M0 0 C3.01111938 4.51667907 3.10067926 7.6639991 3 13 C0.95204577 11.0373772 0.05023362 9.5722693 -0.19921875 6.73046875 C-0.18858877 4.48045617 -0.12958525 2.24614438 0 0 Z " fill="#8B8EA0" transform="translate(111,89)"/>
<path d="M0 0 C0.66 0 1.32 0 2 0 C2.66 1.98 3.32 3.96 4 6 C2.35 5.67 0.7 5.34 -1 5 C-0.67 3.35 -0.34 1.7 0 0 Z " fill="#9598AB" transform="translate(424,114)"/>
<path d="M0 0 C0.99 0 1.98 0 3 0 C3 1.98 3 3.96 3 6 C2.01 6.495 2.01 6.495 1 7 C1 6.34 1 5.68 1 5 C-0.32 4.67 -1.64 4.34 -3 4 C-2.34 3.67 -1.68 3.34 -1 3 C-0.67 2.01 -0.34 1.02 0 0 Z " fill="#979AAC" transform="translate(326,104)"/>
<path d="M0 0 C2.64 0 5.28 0 8 0 C8 1.32 8 2.64 8 4 C6.02 4 4.04 4 2 4 C2.66 3.67 3.32 3.34 4 3 C4 2.34 4 1.68 4 1 C2.68 0.67 1.36 0.34 0 0 Z " fill="#9DA2B3" transform="translate(401,99)"/>
<path d="M0 0 C1.74627478 2.61941217 2.38722388 4.03824877 3 7 C2.01 6.67 1.02 6.34 0 6 C-0.33 6.66 -0.66 7.32 -1 8 C-1.66 6.35 -2.32 4.7 -3 3 C-2.01 3 -1.02 3 0 3 C0 2.01 0 1.02 0 0 Z " fill="#848999" transform="translate(420,101)"/>
<path d="M0 0 C0.66 0.33 1.32 0.66 2 1 C2.36923077 5.55384615 2.36923077 5.55384615 0.5 7.8125 C0.005 8.204375 -0.49 8.59625 -1 9 C-1.09765625 2.84765625 -1.09765625 2.84765625 -1 1 C-0.67 0.67 -0.34 0.34 0 0 Z " fill="#A6A9BF" transform="translate(205,107)"/>
</svg>
